<?xml version="1.0" encoding="UTF-8"?><svg id="Layer_1" xmlns="http://www.w3.org/2000/svg" viewBox="0 0 1075.13 333.08"><defs><style>.cls-1{stroke-width:8px;}.cls-1,.cls-2,.cls-3{fill:none;}.cls-1,.cls-2,.cls-3,.cls-4{opacity:.6;stroke:#f5841f;stroke-miterlimit:10;}.cls-5,.cls-4{fill:#f5841f;}.cls-3{stroke-width:3px;}</style></defs><path class="cls-3" d="M924.29,4.3l-24.86,3.69c-6.43,.95-9.42,8.52-5.38,13.61l15.62,19.68c4.04,5.09,12.08,3.9,14.47-2.15l9.23-23.37c2.39-6.05-2.66-12.42-9.1-11.46Z"/><path class="cls-2" d="M21.26,239.71l-19.23,3.17c-.87,.14-1.25,1.17-.7,1.85l12.36,15.07c.56,.68,1.64,.5,1.95-.32l6.87-18.24c.31-.82-.39-1.67-1.25-1.53Z"/><path class="cls-4" d="M31.76,228.86l-19.23,3.17c-.87,.14-1.25,1.17-.7,1.85l12.36,15.07c.56,.68,1.64,.5,1.95-.32l6.87-18.24c.31-.82-.39-1.67-1.25-1.53Z"/><path class="cls-2" d="M42.27,218.02l-19.23,3.17c-.87,.14-1.25,1.17-.7,1.85l12.36,15.07c.56,.68,1.64,.5,1.95-.32l6.87-18.24c.31-.82-.39-1.67-1.25-1.53Z"/><path class="cls-2" d="M52.77,207.17l-19.23,3.17c-.87,.14-1.25,1.17-.7,1.85l12.36,15.07c.56,.68,1.64,.5,1.95-.32l6.87-18.24c.31-.82-.39-1.67-1.25-1.53Z"/><path class="cls-4" d="M63.27,196.32l-19.23,3.17c-.87,.14-1.25,1.17-.7,1.85l12.36,15.07c.56,.68,1.64,.5,1.95-.32l6.87-18.24c.31-.82-.39-1.67-1.25-1.53Z"/><path class="cls-4" d="M21,20.69L17.83,1.46c-.14-.87-1.17-1.25-1.85-.7L.92,13.12c-.68,.56-.5,1.64,.32,1.95l18.24,6.87c.82,.31,1.67-.39,1.53-1.25Z"/><path class="cls-1" d="M755.26,223.6h0c4.87-6.8,.56-16.32-7.76-17.15h0c-8.33-.82-14.42,7.68-10.97,15.3h0c3.45,7.62,13.86,8.65,18.73,1.85Z"/><g><circle class="cls-5" cx="872.63" cy="150.96" r="2.22"/><circle class="cls-5" cx="897.66" cy="150.96" r="2.22"/><circle class="cls-5" cx="922.7" cy="150.96" r="2.22"/><circle class="cls-5" cx="947.73" cy="150.96" r="2.22"/><circle class="cls-5" cx="972.77" cy="150.96" r="2.22"/><circle class="cls-5" cx="997.8" cy="150.96" r="2.22"/><circle class="cls-5" cx="1022.83" cy="150.96" r="2.22"/><circle class="cls-5" cx="1047.87" cy="150.96" r="2.22"/><circle class="cls-5" cx="1072.9" cy="150.96" r="2.22"/><circle class="cls-5" cx="872.63" cy="176.66" r="2.22"/><circle class="cls-5" cx="897.66" cy="176.66" r="2.22"/><circle class="cls-5" cx="922.7" cy="176.66" r="2.22"/><circle class="cls-5" cx="947.73" cy="176.66" r="2.22"/><circle class="cls-5" cx="972.77" cy="176.66" r="2.22"/><circle class="cls-5" cx="997.8" cy="176.66" r="2.22"/><circle class="cls-5" cx="1022.83" cy="176.66" r="2.22"/><circle class="cls-5" cx="1047.87" cy="176.66" r="2.22"/><circle class="cls-5" cx="1072.9" cy="176.66" r="2.22"/><circle class="cls-5" cx="872.63" cy="202.36" r="2.22"/><circle class="cls-5" cx="897.66" cy="202.36" r="2.22"/><circle class="cls-5" cx="922.7" cy="202.36" r="2.22"/><circle class="cls-5" cx="947.73" cy="202.36" r="2.22"/><circle class="cls-5" cx="972.77" cy="202.36" r="2.22"/><circle class="cls-5" cx="997.8" cy="202.36" r="2.22"/><circle class="cls-5" cx="1022.83" cy="202.36" r="2.22"/><circle class="cls-5" cx="1047.87" cy="202.36" r="2.22"/><circle class="cls-5" cx="1072.9" cy="202.36" r="2.22"/><circle class="cls-5" cx="872.63" cy="228.06" r="2.22"/><circle class="cls-5" cx="897.66" cy="228.06" r="2.22"/><circle class="cls-5" cx="922.7" cy="228.06" r="2.22"/><circle class="cls-5" cx="947.73" cy="228.06" r="2.22"/><circle class="cls-5" cx="972.77" cy="228.06" r="2.22"/><circle class="cls-5" cx="997.8" cy="228.06" r="2.22"/><circle class="cls-5" cx="1022.83" cy="228.06" r="2.22"/><circle class="cls-5" cx="1047.87" cy="228.06" r="2.22"/><circle class="cls-5" cx="1072.9" cy="228.06" r="2.22"/><circle class="cls-5" cx="872.63" cy="253.76" r="2.22"/><circle class="cls-5" cx="897.66" cy="253.76" r="2.22"/><circle class="cls-5" cx="922.7" cy="253.76" r="2.22"/><circle class="cls-5" cx="947.73" cy="253.76" r="2.22"/><circle class="cls-5" cx="972.77" cy="253.76" r="2.22"/><circle class="cls-5" cx="997.8" cy="253.76" r="2.22"/><circle class="cls-5" cx="1022.83" cy="253.76" r="2.22"/><circle class="cls-5" cx="1047.87" cy="253.76" r="2.22"/><circle class="cls-5" cx="1072.9" cy="253.76" r="2.22"/><circle class="cls-5" cx="872.63" cy="279.46" r="2.22"/><circle class="cls-5" cx="897.66" cy="279.46" r="2.22"/><circle class="cls-5" cx="922.7" cy="279.46" r="2.22"/><circle class="cls-5" cx="947.73" cy="279.46" r="2.22"/><circle class="cls-5" cx="972.77" cy="279.46" r="2.22"/><circle class="cls-5" cx="997.8" cy="279.46" r="2.22"/><circle class="cls-5" cx="1022.83" cy="279.46" r="2.22"/><circle class="cls-5" cx="1047.87" cy="279.46" r="2.22"/><circle class="cls-5" cx="1072.9" cy="279.46" r="2.22"/><circle class="cls-5" cx="872.63" cy="305.16" r="2.22"/><circle class="cls-5" cx="897.66" cy="305.16" r="2.22"/><circle class="cls-5" cx="922.7" cy="305.16" r="2.22"/><circle class="cls-5" cx="947.73" cy="305.16" r="2.22"/><circle class="cls-5" cx="972.77" cy="305.16" r="2.22"/><circle class="cls-5" cx="997.8" cy="305.16" r="2.22"/><circle class="cls-5" cx="1022.83" cy="305.16" r="2.22"/><circle class="cls-5" cx="1047.87" cy="305.16" r="2.22"/><circle class="cls-5" cx="1072.9" cy="305.16" r="2.22"/><circle class="cls-5" cx="872.63" cy="330.86" r="2.22"/><circle class="cls-5" cx="897.66" cy="330.86" r="2.22"/><circle class="cls-5" cx="922.7" cy="330.86" r="2.22"/><circle class="cls-5" cx="947.73" cy="330.86" r="2.22"/><circle class="cls-5" cx="972.77" cy="330.86" r="2.22"/><circle class="cls-5" cx="997.8" cy="330.86" r="2.22"/><circle class="cls-5" cx="1022.83" cy="330.86" r="2.22"/><circle class="cls-5" cx="1047.87" cy="330.86" r="2.22"/><circle class="cls-5" cx="1072.9" cy="330.86" r="2.22"/></g></svg>