<?xml version="1.0" encoding="UTF-8"?><svg id="Layer_1" xmlns="http://www.w3.org/2000/svg" xmlns:xlink="http://www.w3.org/1999/xlink" viewBox="0 0 34.29 59.19"><defs><style>.cls-1{fill:#f5841f;}.cls-2{fill:url(#linear-gradient);}.cls-3{fill:#ededed;}</style><linearGradient id="linear-gradient" x1="5.47" y1="48.47" x2="26.26" y2="8.56" gradientTransform="matrix(1, 0, 0, 1, 0, 0)" gradientUnits="userSpaceOnUse"><stop offset="0" stop-color="#f5841f" stop-opacity=".2"/><stop offset="1" stop-color="#f5841f"/></linearGradient></defs><path class="cls-1" d="M14.19,20.65c-.63,.28,.82-4.04,1.09-7.72,.13-1.77-.92-2.41-1.58-2.89-3.04-2.24-1.2-.91-4.73-3.25,4.22-1.13,8.44-2.26,12.66-3.39L34.29,0l-3.39,12.66-3.39,12.66c-1.57-2.21-1.91-2.65-6.41-7.72-.36-.44-1.93,.47-2.55,.88-3.27,1.76-2.8,1.5-4.36,2.18Z"/><polyline class="cls-3" points="29.94 3.34 17.51 11.49 17.04 15.24"/><path class="cls-2" d="M14.8,59.19c-1.43-.75-12.89-6.96-14.59-19.03-.91-6.47,1.36-11.93,2.61-14.94,2.28-5.5,5.8-9.87,6.72-9.44,1,.46-2.19,6.01,.16,8.68,0,0,1.1,1.25,10.55,1.2h0c-2.16,.87-5.52,2.53-8.74,5.65-1.54,1.49-4.91,4.76-5.96,8.9-1.57,6.22,2.3,13.66,9.24,18.99Z"/></svg>