<svg id="Layer_1" data-name="Layer 1" xmlns="http://www.w3.org/2000/svg" viewBox="0 0 271.45 87"><defs><style>.cls-1{fill:#c600cc;}.cls-2{fill:#0025db;}.cls-3{fill:#157c00;}.cls-4{fill:#d18100;}.cls-5{fill:#333;}</style></defs><path class="cls-1" d="M529.28,240.67H498.79a1.69,1.69,0,0,0-1.69,1.69h0a1.69,1.69,0,0,0,1.69,1.68H525.9a1.69,1.69,0,0,1,1.69,1.69v27a1.69,1.69,0,0,0,1.69,1.69h0a1.69,1.69,0,0,0,1.68-1.69V242.36A1.69,1.69,0,0,0,529.28,240.67Z" transform="translate(-446.46 -238.17)"/><path class="cls-1" d="M531.78,276.92h-5a1.69,1.69,0,0,1-1.69-1.69v-27a1.69,1.69,0,0,0-1.69-1.69H496.29a1.69,1.69,0,0,1-1.69-1.68v-5a1.69,1.69,0,0,1,1.69-1.69h35.49a1.69,1.69,0,0,1,1.68,1.69v35.37A1.69,1.69,0,0,1,531.78,276.92Z" transform="translate(-446.46 -238.17)"/><path class="cls-2" d="M527.59,290.61v27a1.69,1.69,0,0,1-1.69,1.68H498.79A1.69,1.69,0,0,0,497.1,321h0a1.69,1.69,0,0,0,1.69,1.69h30.49A1.69,1.69,0,0,0,531,321V290.61a1.69,1.69,0,0,0-1.68-1.69h0A1.69,1.69,0,0,0,527.59,290.61Z" transform="translate(-446.46 -238.17)"/><path class="cls-2" d="M531.78,325.17H496.29a1.69,1.69,0,0,1-1.69-1.69v-5a1.69,1.69,0,0,1,1.69-1.69H523.4a1.69,1.69,0,0,0,1.69-1.68v-27a1.69,1.69,0,0,1,1.69-1.69h5a1.69,1.69,0,0,1,1.68,1.69v35.37A1.69,1.69,0,0,1,531.78,325.17Z" transform="translate(-446.46 -238.17)"/><path class="cls-3" d="M450.65,288.92h0a1.69,1.69,0,0,0-1.69,1.69V321a1.69,1.69,0,0,0,1.69,1.69h30.26A1.69,1.69,0,0,0,482.6,321h0a1.69,1.69,0,0,0-1.69-1.69H454a1.68,1.68,0,0,1-1.69-1.68v-27A1.69,1.69,0,0,0,450.65,288.92Z" transform="translate(-446.46 -238.17)"/><path class="cls-3" d="M483.41,325.17H448.15a1.69,1.69,0,0,1-1.69-1.69V288.11a1.69,1.69,0,0,1,1.69-1.69h5a1.69,1.69,0,0,1,1.69,1.69v27a1.68,1.68,0,0,0,1.69,1.68h26.88a1.69,1.69,0,0,1,1.69,1.69v5A1.69,1.69,0,0,1,483.41,325.17Z" transform="translate(-446.46 -238.17)"/><path class="cls-4" d="M454,244h26.88a1.69,1.69,0,0,0,1.69-1.68h0a1.69,1.69,0,0,0-1.69-1.69H450.65a1.69,1.69,0,0,0-1.69,1.69v30.37a1.69,1.69,0,0,0,1.69,1.69h0a1.69,1.69,0,0,0,1.69-1.69v-27A1.69,1.69,0,0,1,454,244Z" transform="translate(-446.46 -238.17)"/><path class="cls-4" d="M453.15,276.92h-5a1.69,1.69,0,0,1-1.69-1.69V239.86a1.69,1.69,0,0,1,1.69-1.69h35.26a1.69,1.69,0,0,1,1.69,1.69v5a1.69,1.69,0,0,1-1.69,1.68H456.53a1.69,1.69,0,0,0-1.69,1.69v27A1.69,1.69,0,0,1,453.15,276.92Z" transform="translate(-446.46 -238.17)"/><path class="cls-5" d="M504.5,299.89h-4.3a2.5,2.5,0,0,1-2.13-1.19l-19.38-31.4h-.23l.14,1.81q.4,5.2.4,9.52v18.76a2.5,2.5,0,0,1-2.5,2.5h-1.07a2.49,2.49,0,0,1-2.5-2.5v-35.9a2.49,2.49,0,0,1,2.5-2.5h4.22a2.48,2.48,0,0,1,2.12,1.18l19.33,31.24h.17c0-.43-.12-2-.23-4.69s-.17-4.79-.17-6.3V261.49a2.5,2.5,0,0,1,2.5-2.5h1.13a2.5,2.5,0,0,1,2.5,2.5v35.9A2.5,2.5,0,0,1,504.5,299.89Z" transform="translate(-446.46 -238.17)"/><path class="cls-5" d="M507,302.39h-8.2a2.49,2.49,0,0,1-2.12-1.19l-15.2-24.63c0,.7,0,1.39,0,2.06v21.26a2.5,2.5,0,0,1-2.5,2.5h-6.07a2.49,2.49,0,0,1-2.5-2.5V259a2.49,2.49,0,0,1,2.5-2.5H481a2.5,2.5,0,0,1,2.12,1.18l15.23,24.62c0-.7,0-1.33,0-1.87V259a2.5,2.5,0,0,1,2.5-2.5H507a2.5,2.5,0,0,1,2.5,2.5v40.9A2.5,2.5,0,0,1,507,302.39Zm-5.41-5H502a2.5,2.5,0,0,0,2.5-2.5v-33.4h-1.13v18.93c0,1.46.06,3.55.17,6.2.14,3.31.19,4.31.22,4.57h0a2.5,2.5,0,0,1-2.49,2.72h-.17a2.52,2.52,0,0,1-2.13-1.18l-18.59-30.06a2.52,2.52,0,0,0-2.13-1.18h-.32a2.49,2.49,0,0,0-2.5,2.5v33.4h1.07V278.63c0-2.8-.13-5.94-.39-9.33l-.14-1.81a2.5,2.5,0,0,1,2.49-2.69h.23a2.49,2.49,0,0,1,2.13,1.18l18.65,30.22A2.49,2.49,0,0,0,501.59,297.39Z" transform="translate(-446.46 -238.17)"/><path class="cls-5" d="M591.64,281.08H583l-14-24.3h-.2c.06,1,.11,2,.16,3.05s.08,2.05.13,3.07.09,2,.13,3.06v15.12h-6.09V249h8.59l14,24.06h.15c0-1-.06-2-.11-3l-.12-2.95c0-1-.07-2-.1-2.94V249h6.13Z" transform="translate(-446.46 -238.17)"/><path class="cls-5" d="M637.89,265a23.07,23.07,0,0,1-.93,6.76,14.35,14.35,0,0,1-2.8,5.24,12.21,12.21,0,0,1-4.76,3.37,20.24,20.24,0,0,1-13.62,0A12.28,12.28,0,0,1,611,277a14.55,14.55,0,0,1-2.8-5.25,23.63,23.63,0,0,1-.92-6.79,21.19,21.19,0,0,1,1.64-8.69,12.34,12.34,0,0,1,5-5.75,16.64,16.64,0,0,1,8.66-2,16.42,16.42,0,0,1,8.6,2,12.36,12.36,0,0,1,5,5.76A21.47,21.47,0,0,1,637.89,265Zm-23.45,0a17.5,17.5,0,0,0,.85,5.79,7.48,7.48,0,0,0,2.64,3.74,9.07,9.07,0,0,0,9.36,0,7.35,7.35,0,0,0,2.63-3.74,18.08,18.08,0,0,0,.82-5.79,14.43,14.43,0,0,0-1.89-8c-1.26-1.94-3.33-2.9-6.21-2.9a7.82,7.82,0,0,0-4.69,1.3,7.49,7.49,0,0,0-2.66,3.74A17.58,17.58,0,0,0,614.44,265Z" transform="translate(-446.46 -238.17)"/><path class="cls-5" d="M665.94,281.08h-6.82V254.62H650.4V249h24.26v5.67h-8.72Z" transform="translate(-446.46 -238.17)"/><path class="cls-5" d="M717.76,265a23.41,23.41,0,0,1-.92,6.76A14.5,14.5,0,0,1,714,277a12.28,12.28,0,0,1-4.76,3.37,20.24,20.24,0,0,1-13.62,0A12.21,12.21,0,0,1,690.9,277a14.4,14.4,0,0,1-2.8-5.25,23.27,23.27,0,0,1-.93-6.79,21.35,21.35,0,0,1,1.64-8.69,12.34,12.34,0,0,1,5-5.75,16.64,16.64,0,0,1,8.66-2,16.37,16.37,0,0,1,8.6,2,12.36,12.36,0,0,1,5,5.76A21.47,21.47,0,0,1,717.76,265Zm-23.44,0a17.78,17.78,0,0,0,.84,5.79,7.56,7.56,0,0,0,2.65,3.74,7.74,7.74,0,0,0,4.66,1.3,7.83,7.83,0,0,0,4.7-1.3,7.33,7.33,0,0,0,2.62-3.74,18.07,18.07,0,0,0,.83-5.79,14.43,14.43,0,0,0-1.89-8c-1.26-1.94-3.33-2.9-6.22-2.9a7.84,7.84,0,0,0-4.69,1.3,7.56,7.56,0,0,0-2.66,3.74A17.86,17.86,0,0,0,694.32,265Z" transform="translate(-446.46 -238.17)"/><path class="cls-5" d="M564.12,309.08l-.7-12.74h1.16l.4,8.16c0,.71.06,1.32.06,1.85s0,1,0,1.4h.06c.11-.28.24-.58.38-.9s.29-.66.46-1,.37-.76.59-1.18l4.16-8.31h1.16l.74,8.16c0,.6.07,1.17.1,1.72s0,1.07,0,1.53h0c.11-.31.24-.64.37-1s.3-.72.48-1.13l.6-1.35,3.71-8h1.24l-6,12.74h-1.3l-.73-8.45c0-.33-.06-.64-.07-.93s0-.6,0-.91,0-.65,0-1H571c-.13.33-.27.64-.39.93l-.4.87-.48,1-4.29,8.53Z" transform="translate(-446.46 -238.17)"/><path class="cls-5" d="M586.19,309.31a3.24,3.24,0,0,1-1.89-.54,3.41,3.41,0,0,1-1.2-1.54,6.34,6.34,0,0,1-.41-2.38,12,12,0,0,1,.28-2.53,10.6,10.6,0,0,1,.81-2.38,8.48,8.48,0,0,1,1.3-2,5.78,5.78,0,0,1,1.79-1.37,5,5,0,0,1,2.21-.5,3.17,3.17,0,0,1,1.7.43,3.31,3.31,0,0,1,1.07,1.07,5.61,5.61,0,0,1,.56,1.3h.08l.68-2.55h.94l-2.7,12.74h-1l.53-3h-.06a9.12,9.12,0,0,1-1.17,1.46,6.76,6.76,0,0,1-1.61,1.25A4,4,0,0,1,586.19,309.31Zm.31-1a3.54,3.54,0,0,0,2-.73,7.12,7.12,0,0,0,1.85-2,8.62,8.62,0,0,0,1.18-2.85,10.5,10.5,0,0,0,.22-1.26,7.6,7.6,0,0,0,.07-1,3.64,3.64,0,0,0-.73-2.42,2.45,2.45,0,0,0-2-.87,3.74,3.74,0,0,0-1.8.43,4.76,4.76,0,0,0-1.46,1.2,7.38,7.38,0,0,0-1.07,1.74,10.3,10.3,0,0,0-.67,2.1,10.62,10.62,0,0,0-.24,2.25,4.2,4.2,0,0,0,.66,2.52A2.24,2.24,0,0,0,586.5,308.28Z" transform="translate(-446.46 -238.17)"/><path class="cls-5" d="M596.85,314.89a5,5,0,0,1-.84-.06,4.19,4.19,0,0,1-.63-.19v-1a4.9,4.9,0,0,0,.64.18,3.88,3.88,0,0,0,.81.07,2.29,2.29,0,0,0,1.61-.65,8.13,8.13,0,0,0,1.46-2l1.27-2.21-2.07-12.7h1.2l1.19,7.72q.12.75.21,1.47c.06.48.1.92.14,1.33s.06.74.06,1H602c.11-.24.26-.55.45-.94s.39-.8.62-1.24.46-.89.7-1.31l4.43-8h1.28l-8.51,15.28a11.45,11.45,0,0,1-1.19,1.78,4.45,4.45,0,0,1-1.3,1.11A3.32,3.32,0,0,1,596.85,314.89Z" transform="translate(-446.46 -238.17)"/><path class="cls-5" d="M626.53,309.29a4.68,4.68,0,0,1-2.48-.61,3.83,3.83,0,0,1-1.52-1.71,6.06,6.06,0,0,1-.51-2.56,11.15,11.15,0,0,1,.3-2.63,9.53,9.53,0,0,1,.86-2.28,7.29,7.29,0,0,1,1.38-1.8,6,6,0,0,1,1.81-1.17,5.88,5.88,0,0,1,2.19-.41,4.51,4.51,0,0,1,2.45.62,3.93,3.93,0,0,1,1.51,1.71,5.85,5.85,0,0,1,.53,2.54,11.56,11.56,0,0,1-.28,2.51,9.41,9.41,0,0,1-.81,2.27,7.17,7.17,0,0,1-1.33,1.84,5.74,5.74,0,0,1-1.82,1.23A5.59,5.59,0,0,1,626.53,309.29Zm.11-1a4.24,4.24,0,0,0,1.74-.36,4.7,4.7,0,0,0,1.44-1,6.26,6.26,0,0,0,1.09-1.57,8.29,8.29,0,0,0,.68-2,11.49,11.49,0,0,0,.24-2.4,4.92,4.92,0,0,0-.35-1.88,3.1,3.1,0,0,0-1.08-1.36,3.21,3.21,0,0,0-1.85-.5,4.4,4.4,0,0,0-1.75.34,4.56,4.56,0,0,0-1.47,1A6,6,0,0,0,624.2,300a8.44,8.44,0,0,0-.72,2,10.87,10.87,0,0,0-.25,2.41,4.16,4.16,0,0,0,.86,2.79A3.11,3.11,0,0,0,626.64,308.27Z" transform="translate(-446.46 -238.17)"/><path class="cls-5" d="M635.92,314.84a4.59,4.59,0,0,1-.81-.07,4.45,4.45,0,0,1-.68-.17v-1.06a4.77,4.77,0,0,0,.7.19,3.56,3.56,0,0,0,.71.07,1.64,1.64,0,0,0,1.36-.64,4.75,4.75,0,0,0,.77-1.86l2.95-14H638.7l.11-.65,2.32-.34.36-1.66a8.1,8.1,0,0,1,.56-1.76,4.23,4.23,0,0,1,.84-1.23,3.08,3.08,0,0,1,1.16-.72,4.59,4.59,0,0,1,1.55-.24,4.94,4.94,0,0,1,1.1.12,4.79,4.79,0,0,1,.89.26l-.33,1a4.45,4.45,0,0,0-.78-.24,4,4,0,0,0-.86-.09,2.6,2.6,0,0,0-2,.7,4.49,4.49,0,0,0-1,2.29l-.34,1.62h2.82l-.18,1h-2.84l-3,14.14a6.94,6.94,0,0,1-.67,1.89,3.11,3.11,0,0,1-1.05,1.13A2.83,2.83,0,0,1,635.92,314.84Z" transform="translate(-446.46 -238.17)"/><path class="cls-5" d="M660.56,309.31a2.78,2.78,0,0,1-1.9-.6,2.29,2.29,0,0,1-.68-1.82,6.39,6.39,0,0,1,0-.72,6.12,6.12,0,0,1,.14-.8l1.7-8.06H658l.15-.69,2-.39,1-3h.79l-.66,3.07h3.66l-.21,1h-3.66l-1.7,8c-.05.25-.1.5-.13.74a4.18,4.18,0,0,0-.06.68,1.66,1.66,0,0,0,.36,1.12,1.47,1.47,0,0,0,1.17.41,4.61,4.61,0,0,0,.95-.08,5.75,5.75,0,0,0,.84-.22v1a5.58,5.58,0,0,1-.85.24A4.6,4.6,0,0,1,660.56,309.31Z" transform="translate(-446.46 -238.17)"/><path class="cls-5" d="M668.19,309.08l2.69-12.74h1l-.52,3h.07a13,13,0,0,1,1.06-1.41,6.13,6.13,0,0,1,1.47-1.26,3.53,3.53,0,0,1,1.88-.51,4.53,4.53,0,0,1,.74.05,3.45,3.45,0,0,1,.67.15l-.26,1.06-.58-.11a3.62,3.62,0,0,0-.68,0,3.28,3.28,0,0,0-1.66.46,5.58,5.58,0,0,0-1.49,1.25,8.12,8.12,0,0,0-1.16,1.81,9.85,9.85,0,0,0-.74,2.14l-1.3,6.2Z" transform="translate(-446.46 -238.17)"/><path class="cls-5" d="M684.25,309.31a3.92,3.92,0,0,1-1.74-.36,2.4,2.4,0,0,1-1.1-1.06,3.47,3.47,0,0,1-.39-1.72,6.35,6.35,0,0,1,.07-.85c0-.3.09-.61.15-.92l1.71-8.06h1.19l-1.74,8.2c-.07.3-.11.57-.15.82a5.44,5.44,0,0,0,0,.67,2.19,2.19,0,0,0,.6,1.69,2.39,2.39,0,0,0,1.73.56,4,4,0,0,0,2.23-.72,6.72,6.72,0,0,0,1.94-2,9,9,0,0,0,1.2-3l1.31-6.18h1.17l-2.71,12.74h-1l.53-3h-.07a9.43,9.43,0,0,1-1.12,1.44,6.88,6.88,0,0,1-1.64,1.26A4.46,4.46,0,0,1,684.25,309.31Z" transform="translate(-446.46 -238.17)"/><path class="cls-5" d="M700.19,309.31a7.55,7.55,0,0,1-2.13-.27,8.14,8.14,0,0,1-1.49-.58v-1.19a7.33,7.33,0,0,0,1.61.71,6.34,6.34,0,0,0,2,.31,4.76,4.76,0,0,0,1.92-.33,2.3,2.3,0,0,0,1.09-.9,2.52,2.52,0,0,0,.36-1.35,1.86,1.86,0,0,0-.32-1.13,3.07,3.07,0,0,0-.88-.83c-.38-.24-.81-.5-1.31-.78s-1-.62-1.49-.92a3.94,3.94,0,0,1-1-1.05,2.67,2.67,0,0,1-.37-1.45,3.11,3.11,0,0,1,.56-1.91,3.38,3.38,0,0,1,1.51-1.15,5.56,5.56,0,0,1,2.17-.4,8.07,8.07,0,0,1,2.05.24,8.28,8.28,0,0,1,1.58.55l-.38,1a7.36,7.36,0,0,0-1.45-.53,7,7,0,0,0-1.81-.22,3.92,3.92,0,0,0-2.19.57,2,2,0,0,0-.86,1.77,1.76,1.76,0,0,0,.3,1,3.14,3.14,0,0,0,.86.78c.37.23.8.48,1.3.76s1,.59,1.47.9a3.87,3.87,0,0,1,1.09,1.08,2.82,2.82,0,0,1,.42,1.6,3.58,3.58,0,0,1-.51,1.92,3.32,3.32,0,0,1-1.54,1.3A6.09,6.09,0,0,1,700.19,309.31Z" transform="translate(-446.46 -238.17)"/><path class="cls-5" d="M713.54,309.31a2.78,2.78,0,0,1-1.9-.6,2.29,2.29,0,0,1-.68-1.82,6.39,6.39,0,0,1,0-.72,6.12,6.12,0,0,1,.14-.8l1.7-8.06H711l.15-.69,2-.39,1-3h.79l-.66,3.07h3.66l-.21,1H714l-1.7,8c-.05.25-.1.5-.13.74a4.11,4.11,0,0,0-.05.68,1.65,1.65,0,0,0,.35,1.12,1.47,1.47,0,0,0,1.17.41,4.61,4.61,0,0,0,1-.08,5.75,5.75,0,0,0,.84-.22v1a5.58,5.58,0,0,1-.85.24A4.6,4.6,0,0,1,713.54,309.31Z" transform="translate(-446.46 -238.17)"/></svg>