<svg id="Layer_1" data-name="Layer 1" xmlns="http://www.w3.org/2000/svg" viewBox="0 0 369.43 53.1"><defs><style>.cls-1{opacity:0.5;}.cls-2{fill:none;stroke:#bb9973;stroke-miterlimit:10;stroke-width:2px;}</style></defs><g class="cls-1"><path class="cls-2" d="M927,1279c5.58-9.79,14.92-22.59,28-24,26-2.81,38.65,42.2,66,42,28-.21,33.73-47.52,64-50s43.64,43.61,75,40c21.5-2.48,24.55-25.22,50-32,22.7-6,45.84,5.24,63,17" transform="translate(-926.13 -1244.9)"/><path class="cls-2" d="M949,1278c5.58-9.79,14.92-22.59,28-24,26-2.81,38.65,42.2,66,42,28-.21,33.73-47.52,64-50s43.64,43.61,75,40c21.5-2.48,24.55-25.22,50-32,22.7-6,45.84,5.24,63,17" transform="translate(-926.13 -1244.9)"/></g></svg>