<svg id="Layer_1" data-name="Layer 1" xmlns="http://www.w3.org/2000/svg" viewBox="0 0 1920.3 691.41"><defs><style>.cls-1{fill:#f8f9fe;}.cls-2{fill:#f16024;opacity:0.33;}.cls-3{fill:#f17624;}.cls-4{fill:#f2f2f2;}.cls-5{fill:#3f3d56;}.cls-6{fill:#f97302;}.cls-7{fill:#2f2e41;}.cls-8{fill:#fff;}.cls-9{fill:#ffb6b6;}.cls-10{fill:#e6e6e6;}.cls-11{opacity:0.2;isolation:isolate;}</style></defs><path class="cls-1" d="M-.3,530.89c0,79.42,291-14,396,0,224.16,29.89,372,154,500,161,319.4,17.47,380.7-182,664-152.62,205.68,21.31,360,99.41,360,54.61V1.59H-.3Z" transform="translate(0.3 -1.59)"/><circle class="cls-2" cx="1295.85" cy="148.67" r="69.38"/><circle class="cls-3" cx="1024.29" cy="419.62" r="10.59"/><circle class="cls-3" cx="1058.54" cy="419.62" r="10.59"/><circle class="cls-3" cx="1092.78" cy="419.62" r="10.59"/><circle class="cls-3" cx="1127.03" cy="419.62" r="10.59"/><circle class="cls-3" cx="1161.27" cy="419.62" r="10.59"/><circle class="cls-3" cx="1195.51" cy="419.62" r="10.59"/><circle class="cls-3" cx="1229.76" cy="419.62" r="10.59"/><circle class="cls-3" cx="1024.29" cy="457.21" r="10.59"/><circle class="cls-3" cx="1058.54" cy="457.21" r="10.59"/><circle class="cls-3" cx="1092.78" cy="457.21" r="10.59"/><circle class="cls-3" cx="1127.03" cy="457.21" r="10.59"/><circle class="cls-3" cx="1161.27" cy="457.21" r="10.59"/><circle class="cls-3" cx="1195.51" cy="457.21" r="10.59"/><circle class="cls-3" cx="1229.76" cy="457.21" r="10.59"/><circle class="cls-3" cx="1024.29" cy="494.81" r="10.59"/><circle class="cls-3" cx="1058.54" cy="494.81" r="10.59"/><circle class="cls-3" cx="1092.78" cy="494.81" r="10.59"/><circle class="cls-3" cx="1127.03" cy="494.81" r="10.59"/><circle class="cls-3" cx="1161.27" cy="494.81" r="10.59"/><circle class="cls-3" cx="1195.51" cy="494.81" r="10.59"/><circle class="cls-3" cx="1229.76" cy="494.81" r="10.59"/><circle class="cls-3" cx="1024.29" cy="532.41" r="10.59"/><circle class="cls-3" cx="1058.54" cy="532.41" r="10.59"/><circle class="cls-3" cx="1092.78" cy="532.41" r="10.59"/><circle class="cls-3" cx="1127.03" cy="532.41" r="10.59"/><circle class="cls-3" cx="1161.27" cy="532.41" r="10.59"/><circle class="cls-3" cx="1195.51" cy="532.41" r="10.59"/><circle class="cls-3" cx="1229.76" cy="532.41" r="10.59"/><circle class="cls-3" cx="1024.29" cy="570.01" r="10.59"/><circle class="cls-3" cx="1058.54" cy="570.01" r="10.59"/><circle class="cls-3" cx="1092.78" cy="570.01" r="10.59"/><circle class="cls-3" cx="1127.03" cy="570.01" r="10.59"/><circle class="cls-3" cx="1161.27" cy="570.01" r="10.59"/><circle class="cls-3" cx="1195.51" cy="570.01" r="10.59"/><circle class="cls-3" cx="1229.76" cy="570.01" r="10.59"/><path class="cls-3" d="M1768.26,28.44c-153.77-28-507.5,109.62-535.54,263.39S1359.16,686,1521.84,675.67c115.35-7.31,144.12-43,398.16-104.33V136.83C1872.64,78.26,1812.09,36.43,1768.26,28.44Z" transform="translate(0.3 -1.59)"/><circle class="cls-4" cx="1416.49" cy="195.39" r="22.53"/><path class="cls-4" d="M1590.94,553.84c33.49-25.5,49.48-68.36,39.47-109.24-.25-1-.51-2-.79-3-6.64-24.27-23.06-47.33-47-55.09-20.1-6.51-42-1.5-63-4.09-41.16-5.08-73.07-38.39-95.52-73.25s-39.7-73.9-69.54-102.7c-49.17-47.48-129.39-57.7-190.36-26.8s-99.81,99.48-98.15,167.81,42.22,133.67,101.14,168.33c21.64,12.74,46.67,21.76,71.59,18.6,21.61-2.74,41.25-14.35,62.77-17.8,33.82-5.42,67.43,9.87,96.69,27.69s57.51,39,90.76,47.21C1521.29,599.49,1561.28,576.44,1590.94,553.84Z" transform="translate(0.3 -1.59)"/><path class="cls-5" d="M1542.83,181.07c-.73-.49-1.47-1-2.21-1.43a320.68,320.68,0,0,0-67.75-32.84l-5.52,76.12h-35V135.69c-2.2-.46-4.42-.89-6.64-1.3v88.53h-41.57a86.29,86.29,0,0,1-86.29-86.29h0c-2.22.48-4.43,1-6.64,1.54v84.75h-33.86l-5.26-72.59A321.19,321.19,0,0,0,1183,187.06l-1.11.77c-1.86,1.3-3.7,2.64-5.53,4V482.21h99.78l-1.76-24.42-9.7-134.11h195.39l-9.7,134.11-1.77,24.42h98.68V184Q1545.07,182.52,1542.83,181.07Zm-251.6,120.46h-28.18l-5.2-72h33.38Zm134.5,0h-47.32v-1.42a5.22,5.22,0,0,0-5.21-5.22h-20.58a5.21,5.21,0,0,0-5.21,5.21h0v1.42h-49.54v-72h127.86Zm6.64,0v-72h34.5l-5.21,72Z" transform="translate(0.3 -1.59)"/><path class="cls-5" d="M1029.5,500.81a244.26,244.26,0,0,0,23.73,24.42l616.39.85a244.37,244.37,0,0,0,23.73-24.43Z" transform="translate(0.3 -1.59)"/><path class="cls-5" d="M1447.5,422.6v72.3a3.48,3.48,0,0,0,3.47,3.48h107.16a3.47,3.47,0,0,0,3.47-3.48V422.6a3.49,3.49,0,0,0-3.47-3.48H1451A3.49,3.49,0,0,0,1447.5,422.6Z" transform="translate(0.3 -1.59)"/><path class="cls-6" d="M1450,423.5V494a1.86,1.86,0,0,0,1.86,1.86h105.37a1.85,1.85,0,0,0,1.85-1.86V423.5a1.87,1.87,0,0,0-1.85-1.87H1451.87A1.87,1.87,0,0,0,1450,423.5Z" transform="translate(0.3 -1.59)"/><path class="cls-7" d="M1445.26,509a2.09,2.09,0,0,0,1.64.78h114.73a2.11,2.11,0,0,0,2.11-2.11,2,2,0,0,0,0-.43l-1.78-8.46a2.13,2.13,0,0,0-2.07-1.68H1448.67a2.17,2.17,0,0,0-.75.14,2.13,2.13,0,0,0-1.31,1.54l-1.78,8.46A2.12,2.12,0,0,0,1445.26,509Z" transform="translate(0.3 -1.59)"/><rect class="cls-5" x="1555.8" y="497.04" width="3.53" height="2.12" rx="0.41"/><rect class="cls-5" x="1548.74" y="497.04" width="3.53" height="2.12" rx="0.41"/><rect class="cls-5" x="1541.67" y="497.04" width="3.53" height="2.12" rx="0.41"/><rect class="cls-5" x="1534.6" y="497.04" width="3.53" height="2.12" rx="0.41"/><rect class="cls-5" x="1527.53" y="497.04" width="3.53" height="2.12" rx="0.41"/><rect class="cls-5" x="1520.46" y="497.04" width="3.53" height="2.12" rx="0.41"/><rect class="cls-5" x="1513.4" y="497.04" width="3.53" height="2.12" rx="0.41"/><rect class="cls-5" x="1506.33" y="497.04" width="3.53" height="2.12" rx="0.41"/><rect class="cls-5" x="1499.26" y="497.04" width="3.53" height="2.12" rx="0.41"/><rect class="cls-5" x="1492.19" y="497.04" width="3.53" height="2.12" rx="0.41"/><rect class="cls-5" x="1485.13" y="497.04" width="3.53" height="2.12" rx="0.41"/><rect class="cls-5" x="1478.06" y="497.04" width="3.53" height="2.12" rx="0.41"/><rect class="cls-5" x="1470.99" y="497.04" width="3.53" height="2.12" rx="0.41"/><rect class="cls-5" x="1463.92" y="497.04" width="3.53" height="2.12" rx="0.41"/><rect class="cls-5" x="1456.86" y="497.04" width="3.53" height="2.12" rx="0.41"/><rect class="cls-5" x="1449.79" y="497.04" width="3.53" height="2.12" rx="0.41"/><rect class="cls-5" x="1555.89" y="500.58" width="3.53" height="2.12" rx="0.41"/><rect class="cls-5" x="1548.82" y="500.58" width="3.53" height="2.12" rx="0.41"/><rect class="cls-5" x="1541.75" y="500.58" width="3.53" height="2.12" rx="0.41"/><rect class="cls-5" x="1534.68" y="500.58" width="3.53" height="2.12" rx="0.41"/><rect class="cls-5" x="1527.62" y="500.58" width="3.53" height="2.12" rx="0.41"/><rect class="cls-5" x="1520.55" y="500.58" width="3.53" height="2.12" rx="0.41"/><rect class="cls-5" x="1513.48" y="500.58" width="3.53" height="2.12" rx="0.41"/><rect class="cls-5" x="1506.41" y="500.58" width="3.53" height="2.12" rx="0.41"/><rect class="cls-5" x="1499.35" y="500.58" width="3.53" height="2.12" rx="0.41"/><rect class="cls-5" x="1492.28" y="500.58" width="3.53" height="2.12" rx="0.41"/><rect class="cls-5" x="1485.21" y="500.58" width="3.53" height="2.12" rx="0.41"/><rect class="cls-5" x="1478.14" y="500.58" width="3.53" height="2.12" rx="0.41"/><rect class="cls-5" x="1471.07" y="500.58" width="3.53" height="2.12" rx="0.41"/><rect class="cls-5" x="1464.01" y="500.58" width="3.53" height="2.12" rx="0.41"/><rect class="cls-5" x="1456.94" y="500.58" width="3.53" height="2.12" rx="0.41"/><rect class="cls-5" x="1449.87" y="500.58" width="3.53" height="2.12" rx="0.41"/><rect class="cls-5" x="1497.22" y="504.82" width="28.27" height="2.12" rx="0.41"/><rect class="cls-8" x="1464.84" y="435.47" width="5.03" height="2.63" rx="1.32"/><rect class="cls-8" x="1492.28" y="435.47" width="5.03" height="2.63" rx="1.32"/><rect class="cls-8" x="1500.06" y="435.47" width="5.03" height="2.63" rx="1.32"/><rect class="cls-8" x="1472.31" y="435.25" width="17.55" height="2.63" rx="1.32"/><rect class="cls-8" x="1508.89" y="435.25" width="17.55" height="2.63" rx="1.32"/><rect class="cls-8" x="1472.16" y="441.41" width="5.03" height="2.63" rx="1.32"/><rect class="cls-8" x="1499.6" y="441.41" width="5.03" height="2.63" rx="1.32"/><rect class="cls-8" x="1507.37" y="441.41" width="5.03" height="2.63" rx="1.32"/><rect class="cls-8" x="1479.62" y="441.19" width="17.55" height="2.63" rx="1.32"/><rect class="cls-8" x="1516.21" y="441.19" width="17.55" height="2.63" rx="1.32"/><rect class="cls-8" x="1479.48" y="447.36" width="5.03" height="2.63" rx="1.32"/><rect class="cls-8" x="1506.92" y="447.36" width="5.03" height="2.63" rx="1.32"/><rect class="cls-8" x="1514.69" y="447.36" width="5.03" height="2.63" rx="1.32"/><rect class="cls-8" x="1486.94" y="447.14" width="17.55" height="2.63" rx="1.32"/><rect class="cls-8" x="1523.53" y="447.14" width="17.55" height="2.63" rx="1.32"/><rect class="cls-8" x="1486.79" y="453.3" width="5.03" height="2.63" rx="1.32"/><rect class="cls-8" x="1514.23" y="453.3" width="5.03" height="2.63" rx="1.32"/><rect class="cls-8" x="1522.01" y="453.3" width="5.03" height="2.63" rx="1.32"/><rect class="cls-8" x="1494.26" y="453.09" width="17.55" height="2.63" rx="1.32"/><rect class="cls-8" x="1492.28" y="476.95" width="5.03" height="2.63" rx="1.32"/><rect class="cls-8" x="1500.06" y="476.95" width="5.03" height="2.63" rx="1.32"/><rect class="cls-8" x="1508.89" y="477.17" width="17.55" height="2.63" rx="1.32"/><rect class="cls-8" x="1464.84" y="476.95" width="5.03" height="2.63" rx="1.32"/><rect class="cls-8" x="1472.31" y="477.17" width="17.55" height="2.63" rx="1.32"/><rect class="cls-8" x="1472.16" y="471" width="5.03" height="2.63" rx="1.32"/><rect class="cls-8" x="1499.6" y="471" width="5.03" height="2.63" rx="1.32"/><rect class="cls-8" x="1507.37" y="471" width="5.03" height="2.63" rx="1.32"/><rect class="cls-8" x="1479.62" y="471.22" width="17.55" height="2.63" rx="1.32"/><rect class="cls-8" x="1479.48" y="465.05" width="5.03" height="2.63" rx="1.32"/><rect class="cls-8" x="1506.92" y="465.05" width="5.03" height="2.63" rx="1.32"/><rect class="cls-8" x="1514.69" y="465.05" width="5.03" height="2.63" rx="1.32"/><rect class="cls-8" x="1486.94" y="465.27" width="17.55" height="2.63" rx="1.32"/><rect class="cls-8" x="1486.79" y="459.11" width="5.03" height="2.63" rx="1.32"/><rect class="cls-8" x="1514.23" y="459.11" width="5.03" height="2.63" rx="1.32"/><rect class="cls-8" x="1522.01" y="459.11" width="5.03" height="2.63" rx="1.32"/><rect class="cls-8" x="1494.26" y="459.33" width="17.55" height="2.63" rx="1.32"/><path class="cls-9" d="M1455.5,548.21l-11.26-17.8,35.35-28.18,14.6-16.17a16.17,16.17,0,0,1,27.35,5.76h0a16.17,16.17,0,0,1-9.77,20.24l-23.07,8.51Z" transform="translate(0.3 -1.59)"/><path class="cls-7" d="M1191.23,419.13v86.53h60.62V419.13a2.91,2.91,0,0,0-2-2.79,2.82,2.82,0,0,0-.87-.13h-54.77a2.93,2.93,0,0,0-2.93,2.91Zm23.66,29.73a6.47,6.47,0,0,1,12.94,0v10a6.47,6.47,0,0,1-12.94,0Z" transform="translate(0.3 -1.59)"/><path class="cls-5" d="M1191.05,502.89v8.34a1.65,1.65,0,0,0,1.63,1.64h57.73a1.63,1.63,0,0,0,1.63-1.64v-8.34Z" transform="translate(0.3 -1.59)"/><path class="cls-5" d="M1095.87,288.76v158a7.59,7.59,0,0,0,7.59,7.59h234.13a7.59,7.59,0,0,0,7.59-7.59v-158a7.61,7.61,0,0,0-7.59-7.59H1103.46A7.61,7.61,0,0,0,1095.87,288.76Z" transform="translate(0.3 -1.59)"/><path class="cls-8" d="M1101.36,290.72V444.8a4.07,4.07,0,0,0,4.06,4.06h230.22a4.06,4.06,0,0,0,4.06-4.06V290.72a4.06,4.06,0,0,0-4.06-4.06H1105.42A4.06,4.06,0,0,0,1101.36,290.72Z" transform="translate(0.3 -1.59)"/><path class="cls-7" d="M1144.09,512.31a2.46,2.46,0,0,0,2,.93h137a2.52,2.52,0,0,0,2.52-2.52,2.16,2.16,0,0,0-.06-.51l-2.12-10.1a2.51,2.51,0,0,0-1.57-1.83,2.32,2.32,0,0,0-.9-.17H1148.16a2.27,2.27,0,0,0-.89.17,2.51,2.51,0,0,0-1.57,1.83l-2.13,10.1A2.53,2.53,0,0,0,1144.09,512.31Z" transform="translate(0.3 -1.59)"/><path class="cls-5" d="M1328.17,307.88H1112.75a.86.86,0,0,1,0-1.71h215.42a.86.86,0,0,1,0,1.71Z" transform="translate(0.3 -1.59)"/><ellipse class="cls-5" cx="1127.72" cy="295.07" rx="5.02" ry="5.13"/><ellipse class="cls-5" cx="1145.06" cy="295.07" rx="5.02" ry="5.13"/><ellipse class="cls-5" cx="1162.4" cy="295.07" rx="5.02" ry="5.13"/><path class="cls-5" d="M1317.73,292.8h-12.32a.93.93,0,0,0,0,1.86h12.32a.93.93,0,0,0,0-1.86Z" transform="translate(0.3 -1.59)"/><path class="cls-5" d="M1317.73,296.3h-12.32a.94.94,0,0,0,0,1.87h12.32a.94.94,0,0,0,0-1.87Z" transform="translate(0.3 -1.59)"/><path class="cls-5" d="M1317.73,299.8h-12.32a.94.94,0,0,0-.91,1,.93.93,0,0,0,.91.91h12.32a.94.94,0,0,0,0-1.87Z" transform="translate(0.3 -1.59)"/><path class="cls-7" d="M1614.69,506.55a5.42,5.42,0,0,0,5.22,3.66l22.35-.58a5.33,5.33,0,0,0,5-3.93l3.16-33.82a8.29,8.29,0,0,0,3.57.74,8.15,8.15,0,1,0-.41-16.3,7.16,7.16,0,0,0-1.46.15,5.48,5.48,0,0,0-4.11-1.77l-34.38.88a4.82,4.82,0,0,0-.85.11,5.37,5.37,0,0,0-4.3,6.26,5.71,5.71,0,0,0,.19.71Zm36.43-37,2.25-8.06a5.58,5.58,0,0,0,0-2.84c.1,0,.2-.05.31-.05a5.83,5.83,0,0,1,.27,11.65A5.48,5.48,0,0,1,1651.12,469.58Z" transform="translate(0.3 -1.59)"/><path class="cls-5" d="M1612.83,455.69c.73,4.19,9,7.13,18.87,6.62,9.1-.42,16.55-3.62,17.91-7.41a4.79,4.79,0,0,0-1.55-.2l-34.38.88A4.82,4.82,0,0,0,1612.83,455.69Z" transform="translate(0.3 -1.59)"/><path class="cls-6" d="M1633.51,488a.31.31,0,0,0,.13-.06l4.85-3.18a.41.41,0,0,0,.13-.58.46.46,0,0,0-.12-.12l-5-3.31a.42.42,0,0,0-.58.13.41.41,0,0,0,.12.58l4.5,2.95-4.31,2.83a.41.41,0,0,0-.12.58.42.42,0,0,0,.45.18Z" transform="translate(0.3 -1.59)"/><path class="cls-6" d="M1625.85,488.32a.42.42,0,0,0,.3-.51.41.41,0,0,0-.2-.26l-4.47-2.57,4.32-3.21a.42.42,0,1,0-.5-.68l-4.84,3.6a.42.42,0,0,0-.09.59.69.69,0,0,0,.13.11l5,2.89A.45.45,0,0,0,1625.85,488.32Z" transform="translate(0.3 -1.59)"/><path class="cls-6" d="M1633,490.75l.12-.05a.42.42,0,0,0,.14-.58h0l-6.88-11.31a.42.42,0,0,0-.58-.14.41.41,0,0,0-.14.58l6.88,11.31A.4.4,0,0,0,1633,490.75Z" transform="translate(0.3 -1.59)"/><rect class="cls-6" x="1206.46" y="352.86" width="42.79" height="9.15" rx="2.75"/><rect class="cls-10" x="1184.73" y="371.16" width="86.26" height="9.15" rx="2.75"/><rect class="cls-10" x="1184.73" y="389.46" width="86.26" height="9.15" rx="2.75"/><path class="cls-5" d="M1274.78,452.34l.18.58v0l5.51,16.73,6.33,19.29,11.91,36.25.12,5.63v0l.88,45.29-2.45,6.14,2.76,10.07s-1.27-15.22-8.08-6.48c-3.86,5-8.38,10-12.08,14.81q8.1,3.28,16.46,5.93c1.2.39,2.41.75,3.63,1.12l.78.23a225.2,225.2,0,0,0,56.82,9.13l2.93.07,1,0,3.22,0c2.18,0,4.34,0,6.5-.1a224.84,224.84,0,0,0,47.32-6.4c-.1-6.4-.39-13.88-.81-21.86-.19-3.92-4.51-8.17-4.77-12.27-.18-3.08,3.69-6,3.49-9.1-1.31-19.26-2.94-11.87-4.15-25.51-.13-1.33-.25-2.61-.35-3.84-.78-8.75-1.32-14.23-1.32-14.23l5.18-32.64,8.13-51.24-.62-1-.71-.35-42.89-21.23-2.33-6a9.29,9.29,0,0,0-8.56-5.86l-28.26-.11a9.2,9.2,0,0,0-7.51,3.82l-7.66,10.6Z" transform="translate(0.3 -1.59)"/><path class="cls-5" d="M1305.24,517.14l-6.4,13.7-4.37,9.35L1287,579.55l-3.76,4L1280,569.4l-33.75,7.5c-1.11-6.15-.3.2-1-6.54.19-.19.39-.39.6-.58.54-.5,1-1,1-1.42-.39-23.28.77-62.88,10.41-86.88a50.79,50.79,0,0,1,5.93-11.06c.19-.26.38-.51.56-.77,4.45-6.23,7.26-12.36,11.24-16.72h0l.07-.07,0,0,27.37-14.51,1.17,33,.84,23.72Z" transform="translate(0.3 -1.59)"/><path class="cls-5" d="M1403.94,521l8,17.11,2.8,6,7.51,39.35,3.75,4,3.23-14.13,1.52-.32,27.39-5.67,8,25.35a15.16,15.16,0,0,0-2.75-19c-.55-.5-1-1-1-1.43.45-27.37-1.22-77.36-16.34-97.93-4.8-6.53-7.68-13-11.88-17.57,0,0,0,0,0,0l-10.2-16.7-.63-1-.7-.35Z" transform="translate(0.3 -1.59)"/><circle id="a657ec4b-47ce-4d2a-9c58-81a811696ca9" class="cls-9" cx="1355.81" cy="358.24" r="37.59"/><path class="cls-7" d="M1406.32,333.57a3.16,3.16,0,0,0-2.27-1l.57-1.57a3,3,0,0,0-3.35-4l-2,.4.19-1.37a3,3,0,0,0-2.52-3.38,2.94,2.94,0,0,0-1.47.15,3.19,3.19,0,0,1-2.73-.19,3.25,3.25,0,0,1-1.62-2.2l-.72-3.46-.08-.19c-3.49-5.82-10.21-10.06-18.42-11.61-7.32-1.39-14.82-.68-22,0-2.87.27-6.11.57-8.81,2.22-2.29,1.42-4.23,4.26-3.84,7.12-7.13-2.19-14.77,2.17-18.56,7.67-4.49,6.55-5.22,14.75-5.34,21.16-.32,15.17,2.81,27.58,9.28,36.9.47.67.59,2.08,1.53,2.55l-.2-.31c1.05.53,2.11,1.37,1.72,2.27-1.14,2.6,6.43,8.35,11.76,10.24,9.73,3.47,22.66,3.18,31.76,1.93l.32-2.15c3.28-.45,5.59-1.3,6.24-2.64,1.15-1,2.13-1.85,3-2.66h0s0,0,.06-.06c4.11-3.94,5.07-6.18,5.5-9.6a27.4,27.4,0,0,0-1.08-9.81c15.82,2.44-6.22-16.84,8.51-20.57a4.77,4.77,0,0,1,.51-.13c.43-.1.86-.2,1.28-.32a22.54,22.54,0,0,0,5.67-2.42c4.12-2.51,5.47-5.83,7.6-9.58A2.88,2.88,0,0,0,1406.32,333.57Z" transform="translate(0.3 -1.59)"/><path class="cls-7" d="M1488.47,523.71c0,1.48,0,3.54-.09,6.1,0,.35,0,.72,0,1.09-.11,4.7-.22,8.64-.39,13,0,.3,0,.6,0,.9-.23,6.11-.6,13.22-1.25,24.48-1.19,20.81-3.26,2.86-5.35,10.16-.1.36-.21.79-.31,1.3a23.6,23.6,0,0,1-1.58,5.34c-1.11.66-2.25,1.29-3.37,1.92-3.2,1.79-6.45,3.5-9.72,5.13q-2.76,1.36-5.54,2.66l-.87.4a229.24,229.24,0,0,1-29.32,11.19c-2,.59-3.91,1.16-5.88,1.69s-4.12,1.12-6.2,1.62a225.51,225.51,0,0,1-47.33,6.41q-3.23.09-6.49.09l-3.22,0-1,0-2.94-.06a224.77,224.77,0,0,1-56.82-9.14l-.79-.23c-1.21-.37-2.42-.73-3.62-1.12q-8.36-2.64-16.46-5.92-6.19-2.49-12.24-5.35l-.1-.05c-.84-.39-1.69-.8-2.54-1.21l-.34-.18q-4.73-2.29-9.34-4.82c-2.59-6-6.24-7.09-8.5-12.32a22,22,0,0,1-1.42-4.84s0,0,0-.06c.24,3.14-1-5.57,0,0q0-.15,0-.33c0-.31-.06-.68-.11-1.14-2.89-28.26-2.71-60.57-4-87.2-.08-1.72-.17-3.37-.26-4.94,0-.53-.06-1-.09-1.55.06-.15.13-.31.2-.46l.06-.13.09-.15.06-.08a.36.36,0,0,1,0-.09,3.9,3.9,0,0,1,.25-.36l.12-.14a.52.52,0,0,1,.1-.11l.09-.11.11-.12a.23.23,0,0,1,.07-.07,1.45,1.45,0,0,1,.22-.21,7.82,7.82,0,0,1,1-.76c.12-.08.25-.15.36-.24a17.34,17.34,0,0,1,2.68-1.28c.32-.12.64-.23,1-.34l.37-.12a5.15,5.15,0,0,1,.56-.16c1-.29,2-.53,3.12-.76l.43-.09.62-.11.88-.15c2.5-.39,5.35-.69,8.49-.88l.88-.05,1-.05.9,0c.3,0,.6,0,.91,0l2.63-.07c2.54-.05,5.23,0,8,0,1.31,0,2.64.06,4,.12h.26c1.19,0,2.39.09,3.62.16l2.6.14,2.48.16,2,.12c.56,0,1.11.09,1.67.12l.76.05,1.25.1,2.8.23,2.84.25,2.88.27.29,0,2.64.27c.2,0,.41,0,.61.06l2.56.27.78.09,2,.21,2.67.31,2,.24c1.07.13,2.16.26,3.25.41l1.24.16c3.1.38,6.24.81,9.43,1.26,4.83.68,9.75,1.43,14.69,2.23s9.93,1.65,14.94,2.54l3.81.69,1.72.33,2.93.55,2.94.56,3.5.69c7.67,1.51,15.3,3.13,22.74,4.83l3.66.84c2.43.57,4.84,1.14,7.22,1.73l2,.47,4.83,1.22.28.08c1.18.28,2.32.58,3.47.88q4.07,1.06,8,2.15l5.16,1.46c2.53.74,5,1.48,7.45,2.23l1.78.55q2.67.83,5.22,1.66c1.35.44,2.66.89,4,1.33l3.83,1.35c.8.28,1.59.59,2.38.87l3.36,1.27,1,.39.61.25,1.19.47c.4.15.79.32,1.17.48l1.14.48c.38.15.75.31,1.13.48s.61.26.91.39l1.78.8.86.39.66.31.27.13.65.31,1.44.7,1.84,1,1.74,1,.27.15c.12.07.25.15.38.21l1.25.75c.81.49,1.58,1,2.3,1.47l.47.32c.53.38,1,.75,1.51,1.13h0l.46.37c.13.11.26.21.39.33.44.38.84.75,1.22,1.12a4,4,0,0,1,.35.36l.13.13c.17.17.33.34.47.51l.06.08c.2.23.39.47.56.71s.18.23.26.35a4.08,4.08,0,0,1,.28.44,3.35,3.35,0,0,1,.21.36,5.93,5.93,0,0,1,.46,1,5.73,5.73,0,0,1,.23.7A5.12,5.12,0,0,1,1488.47,523.71Z" transform="translate(0.3 -1.59)"/><path class="cls-11" d="M1488.47,523.71c0,1.48,0,3.54-.09,6.1,0,.35,0,.72,0,1.09-.08,3.58-.21,8-.38,13,0,.3,0,.6,0,.9-.23,6.11-.6,13.22-1.25,24.48-1.19,20.81-3.26,2.86-5.35,10.16-5.78-3.56-12.13-7.29-18.91-11.12l-3.7-2.08c-13.57-7.57-28.72-15.5-44.54-23.36l-1.89-.92c-36.23-17.92-75.78-35.34-107.83-47-6.18-2.25-12.09-4.27-17.64-6-11.69-3.74-21.8-6.36-29.58-7.49-8.1-1.18-13.69-.76-16,1.68-.08-1.72-.17-3.37-.26-4.94,0-.53-.06-1-.1-1.55a2.93,2.93,0,0,1,.19-.4l0-.06.06-.13.09-.15a.59.59,0,0,1,.1-.17,3.9,3.9,0,0,1,.25-.36,2.62,2.62,0,0,1,.22-.25l.09-.11.11-.12a.23.23,0,0,1,.07-.07,1.45,1.45,0,0,1,.22-.21,7.82,7.82,0,0,1,1-.76c.12-.08.25-.15.36-.24a17.34,17.34,0,0,1,2.68-1.28c.32-.12.64-.23,1-.34l.37-.12a5.15,5.15,0,0,1,.56-.16c1-.29,2-.53,3.12-.76l1.05-.2.88-.15c2.5-.39,5.35-.69,8.49-.88l.88-.05,1-.05.9,0c.3,0,.6,0,.91,0l2.63-.07c2.54,0,5.23,0,8,0,1.31,0,2.64.07,4,.13h.26c1.19,0,2.4.09,3.62.15l2.6.14,2.48.16,2,.12c.56,0,1.11.09,1.67.12l2,.15,2.8.23,2.84.25,2.88.27.29,0,2.64.27q7.37.75,15.16,1.75c3.1.39,6.25.82,9.43,1.27,4.84.68,9.75,1.43,14.69,2.22s9.93,1.65,14.94,2.54l3.81.69,4.65.88,2.94.56,3.5.69c7.67,1.51,15.3,3.13,22.74,4.83l3.66.84q3.65.86,7.22,1.72l2,.49,4.83,1.21h0l.28.07c1.17.29,2.32.59,3.47.89q4.07,1.06,8,2.14l5.16,1.46c2.53.75,5,1.49,7.45,2.23l1.78.55,5.22,1.66c1.35.44,2.66.89,4,1.33l3.83,1.35c.81.28,1.6.58,2.38.87,1.15.42,2.26.84,3.36,1.27l1,.39c.61.23,1.21.48,1.8.72.4.15.79.32,1.17.48l1.14.48c.38.15.75.31,1.13.48s.61.26.91.39l1.78.8.86.39.66.31.27.13,2.09,1,1.84,1c.7.37,1.36.73,2,1.1.12.07.25.15.38.21l1.25.75c.81.49,1.58,1,2.3,1.47s1.36,1,2,1.45h0l.85.7c.44.38.84.75,1.22,1.12a4,4,0,0,1,.35.36l.13.13c.18.2.36.39.53.59s.39.47.56.71.18.23.26.35a4.08,4.08,0,0,1,.28.44,3.35,3.35,0,0,1,.21.36,5.93,5.93,0,0,1,.46,1,5.73,5.73,0,0,1,.23.7A5.12,5.12,0,0,1,1488.47,523.71Z" transform="translate(0.3 -1.59)"/><path class="cls-1" d="M218.7-157.41" transform="translate(0.3 -1.59)"/></svg>