<svg id="Layer_1" data-name="Layer 1" xmlns="http://www.w3.org/2000/svg" xmlns:xlink="http://www.w3.org/1999/xlink" viewBox="0 0 1919.4 742.4"><defs><style>.cls-1{opacity:0.61;}.cls-2{opacity:0.3;}.cls-3{fill:#bfa68e;}.cls-4{opacity:0.7;}.cls-5{fill:#bc9973;}.cls-6{opacity:0.5;}.cls-7{fill:#a59381;}.cls-10,.cls-8{opacity:0.79;}.cls-9{fill:#d1d1d1;}.cls-10,.cls-18{fill:#fff;}.cls-11{opacity:0.1;}.cls-12{fill:#ff9c11;opacity:0.2;}.cls-13{fill:url(#linear-gradient);}.cls-14{fill:#6c63ff;}.cls-15{fill:#3f3d56;}.cls-16{fill:#2f2e41;}.cls-17{fill:#ffb8b8;}.cls-19{opacity:0.39;}</style><linearGradient id="linear-gradient" x1="1105.11" y1="550.92" x2="1639.71" y2="550.92" gradientUnits="userSpaceOnUse"><stop offset="0" stop-color="#ff6f11"/><stop offset="1" stop-color="#fbb03b" stop-opacity="0.8"/></linearGradient></defs><g class="cls-1"><g class="cls-2"><path class="cls-3" d="M151.46,755.41h-45A9.32,9.32,0,0,1,97,746.35V704.06a9.32,9.32,0,0,1,9.54-9h45a9.31,9.31,0,0,1,9.53,9v42.29A9.31,9.31,0,0,1,151.46,755.41Zm-45-57.4a6.32,6.32,0,0,0-6.54,6v42.29a6.33,6.33,0,0,0,6.54,6.06h45a6.32,6.32,0,0,0,6.53-6.06V704.06a6.31,6.31,0,0,0-6.53-6Z" transform="translate(-0.36 -98.1)"/><g class="cls-4"><path class="cls-5" d="M167.64,711.72h-45a7.81,7.81,0,0,0-8,7.56v42.29a7.81,7.81,0,0,0,8,7.55h45a7.8,7.8,0,0,0,8-7.55V719.28A7.81,7.81,0,0,0,167.64,711.72Z" transform="translate(-0.36 -98.1)"/></g></g><g class="cls-2"><path class="cls-5" d="M1579.42,220.94a4.4,4.4,0,0,1-3.93-2.35l-6.7-12.75-15-2.05a4.35,4.35,0,0,1-3.62-3,4.22,4.22,0,0,1,1.2-4.39l10.78-9.88-2.54-13.91a4.23,4.23,0,0,1,1.65-4.16A4.48,4.48,0,0,1,1566,168l13.47,6.67L1592.9,168a4.48,4.48,0,0,1,4.71.44,4.25,4.25,0,0,1,1.65,4.16l-2.54,13.91,10.78,9.88a4.23,4.23,0,0,1,1.2,4.4,4.37,4.37,0,0,1-3.62,3l-15,2.05-6.69,12.75A4.42,4.42,0,0,1,1579.42,220.94ZM1555.86,199l13.89,1.89a4.43,4.43,0,0,1,3.32,2.31l6.35,12.11,6.36-12.11a4.43,4.43,0,0,1,3.32-2.31L1603,199l-9.93-9.11a4.24,4.24,0,0,1-1.33-3.89L1594.1,173l-12.67,6.26a4.56,4.56,0,0,1-4,0L1564.75,173l2.38,13a4.24,4.24,0,0,1-1.33,3.9Z" transform="translate(-0.36 -98.1)"/></g><g class="cls-2"><path class="cls-5" d="M628.28,659.76q-13.53-6.82-26.82-13.49a2.5,2.5,0,0,0-2.24,4.47q13.29,6.64,26.81,13.49a2.54,2.54,0,0,0,1.13.27,2.5,2.5,0,0,0,1.12-4.74Z" transform="translate(-0.36 -98.1)"/><path class="cls-5" d="M538.44,615.59c-9.52-4.46-18.72-8.66-27.36-12.48a2.5,2.5,0,0,0-2,4.57c8.6,3.81,17.77,8,27.26,12.44a2.5,2.5,0,0,0,2.12-4.53Z" transform="translate(-0.36 -98.1)"/><path class="cls-5" d="M583.54,637.35c-9.7-4.79-18.53-9.1-27-13.17a2.5,2.5,0,1,0-2.17,4.5c8.46,4.07,17.27,8.37,27,13.16a2.58,2.58,0,0,0,1.11.26,2.51,2.51,0,0,0,1.11-4.75Z" transform="translate(-0.36 -98.1)"/><path class="cls-5" d="M492.68,595.14c-9.63-4.07-19-7.86-27.9-11.27a2.5,2.5,0,1,0-1.79,4.67c8.83,3.39,18.16,7.15,27.75,11.2a2.41,2.41,0,0,0,1,.2,2.5,2.5,0,0,0,1-4.8Z" transform="translate(-0.36 -98.1)"/><path class="cls-5" d="M445.94,577c-9.85-3.46-19.5-6.58-28.67-9.26a2.5,2.5,0,0,0-1.41,4.8c9.09,2.66,18.66,5.75,28.42,9.18a2.68,2.68,0,0,0,.83.14,2.5,2.5,0,0,0,.83-4.86Z" transform="translate(-0.36 -98.1)"/><path class="cls-5" d="M762.77,726.16c-8.7-4.07-17.81-8.4-27.08-12.86a2.5,2.5,0,1,0-2.17,4.5c9.28,4.47,18.41,8.81,27.14,12.89a2.46,2.46,0,0,0,1.05.23,2.5,2.5,0,0,0,1.06-4.76Z" transform="translate(-0.36 -98.1)"/><path class="cls-5" d="M672.94,682.31q-13.52-6.79-26.79-13.52a2.5,2.5,0,1,0-2.26,4.46q13.29,6.72,26.8,13.52a2.53,2.53,0,0,0,1.12.27,2.5,2.5,0,0,0,1.13-4.73Z" transform="translate(-0.36 -98.1)"/><path class="cls-5" d="M397.86,562.45c-10.12-2.49-20.06-4.53-29.55-6.07a2.5,2.5,0,0,0-.8,4.94c9.36,1.51,19.17,3.53,29.16,6a2.47,2.47,0,0,0,.6.08,2.5,2.5,0,0,0,.59-4.93Z" transform="translate(-0.36 -98.1)"/><path class="cls-5" d="M808.28,746.76c-8.89-3.88-18.1-8-27.36-12.22a2.5,2.5,0,1,0-2.08,4.55c9.29,4.23,18.52,8.36,27.44,12.25a2.33,2.33,0,0,0,1,.21,2.5,2.5,0,0,0,1-4.79Z" transform="translate(-0.36 -98.1)"/><path class="cls-5" d="M717.71,704.56c-8.4-4.12-17.2-8.47-26.89-13.3a2.5,2.5,0,0,0-2.23,4.48c9.7,4.83,18.51,9.19,26.92,13.31a2.5,2.5,0,1,0,2.2-4.49Z" transform="translate(-0.36 -98.1)"/><path class="cls-5" d="M854.34,766c-9-3.6-18.36-7.43-27.71-11.38a2.5,2.5,0,1,0-2,4.6c9.38,4,18.73,7.81,27.81,11.43a2.47,2.47,0,0,0,.92.18,2.51,2.51,0,0,0,.93-4.83Z" transform="translate(-0.36 -98.1)"/><path class="cls-5" d="M1647.31,364.8a2.5,2.5,0,0,0,2.45,2,2.92,2.92,0,0,0,.5-.05,2.5,2.5,0,0,0,2-2.95c-2-9.69-4.22-19.57-6.72-29.37a2.5,2.5,0,1,0-4.85,1.23C1643.12,345.39,1645.37,355.2,1647.31,364.8Z" transform="translate(-0.36 -98.1)"/><path class="cls-5" d="M1619.77,269.13a2.5,2.5,0,0,0,2.34,1.62,2.61,2.61,0,0,0,.87-.15,2.5,2.5,0,0,0,1.47-3.22c-3.52-9.46-7.27-18.88-11.15-28a2.5,2.5,0,0,0-4.6,2C1612.54,250.38,1616.27,259.73,1619.77,269.13Z" transform="translate(-0.36 -98.1)"/><path class="cls-5" d="M1650.92,384.39c1.65,9.91,3,19.87,4.06,29.59a2.5,2.5,0,0,0,2.48,2.23h.28a2.5,2.5,0,0,0,2.21-2.76c-1.06-9.81-2.44-19.86-4.1-29.86a2.5,2.5,0,0,0-4.93.81Z" transform="translate(-0.36 -98.1)"/><path class="cls-5" d="M1656.72,433.81c.67,10,1,20.07,1,29.81a2.5,2.5,0,0,0,2.5,2.5h0a2.5,2.5,0,0,0,2.5-2.5c0-9.85-.36-20-1-30.15a2.5,2.5,0,0,0-5,.34Z" transform="translate(-0.36 -98.1)"/><path class="cls-5" d="M298,554.11a196.82,196.82,0,0,0-29.78,5.83,2.5,2.5,0,0,0,.67,4.91,2.27,2.27,0,0,0,.67-.1,193.08,193.08,0,0,1,29-5.67,2.5,2.5,0,1,0-.59-5Z" transform="translate(-0.36 -98.1)"/><path class="cls-5" d="M348.33,553.81c-8.31-.79-16.54-1.18-24.44-1.18-1.92,0-3.86,0-5.77.07a2.5,2.5,0,0,0,.13,5c1.86,0,3.76-.06,5.64-.06,7.75,0,15.81.39,24,1.16h.24a2.5,2.5,0,0,0,.23-5Z" transform="translate(-0.36 -98.1)"/><path class="cls-5" d="M249,566.42a191.13,191.13,0,0,0-27.2,13.5,2.5,2.5,0,0,0,1.29,4.64,2.47,2.47,0,0,0,1.28-.35,186.41,186.41,0,0,1,26.49-13.14,2.5,2.5,0,0,0-1.86-4.65Z" transform="translate(-0.36 -98.1)"/><path class="cls-5" d="M205,591.18A209.72,209.72,0,0,0,182,611a2.5,2.5,0,0,0,3.54,3.54,203.91,203.91,0,0,1,22.38-19.37,2.5,2.5,0,1,0-3-4Z" transform="translate(-0.36 -98.1)"/><path class="cls-5" d="M168.39,626a252.87,252.87,0,0,0-17.93,24.4,2.5,2.5,0,1,0,4.19,2.72,247.54,247.54,0,0,1,17.58-23.92,2.5,2.5,0,1,0-3.84-3.2Z" transform="translate(-0.36 -98.1)"/><path class="cls-5" d="M143.51,666.69a2.5,2.5,0,0,0-3.4,1c-4.71,8.54-9.18,17.67-13.31,27.13a1.39,1.39,0,0,0-.06.19h5.46c3.84-8.67,8-17,12.29-24.91A2.5,2.5,0,0,0,143.51,666.69Z" transform="translate(-0.36 -98.1)"/><path class="cls-5" d="M1044.92,822.94c-9.66-1.79-19.51-3.8-29.29-6a2.5,2.5,0,1,0-1.09,4.88c9.84,2.19,19.75,4.22,29.47,6a2.38,2.38,0,0,0,.46,0,2.5,2.5,0,0,0,.45-5Z" transform="translate(-0.36 -98.1)"/><path class="cls-5" d="M1623.57,625.47a2.5,2.5,0,0,0-3.37,1.06c-2.82,5.39-5.84,10.78-9,16-2,3.26-4,6.52-6,9.67a2.5,2.5,0,0,0,4.19,2.73c2.09-3.2,4.16-6.51,6.15-9.82,3.19-5.31,6.26-10.78,9.12-16.26A2.5,2.5,0,0,0,1623.57,625.47Z" transform="translate(-0.36 -98.1)"/><path class="cls-5" d="M1605.13,221c-2.3-4.95-4.53-9.56-6.81-14.09a2.5,2.5,0,0,0-4.47,2.25c2.26,4.48,4.47,9.05,6.75,14a2.51,2.51,0,0,0,2.27,1.45,2.51,2.51,0,0,0,2.26-3.56Z" transform="translate(-0.36 -98.1)"/><path class="cls-5" d="M1597.32,667.94a2.51,2.51,0,0,0-3.5.51c-5.89,7.88-12.25,15.6-18.91,22.95a2.5,2.5,0,1,0,3.7,3.36c6.77-7.47,13.23-15.31,19.22-23.32A2.51,2.51,0,0,0,1597.32,667.94Z" transform="translate(-0.36 -98.1)"/><path class="cls-5" d="M1561.14,705.68c-7,6.82-14.46,13.5-22.2,19.82a2.5,2.5,0,0,0-.35,3.52,2.48,2.48,0,0,0,3.51.35c7.86-6.42,15.43-13.19,22.53-20.12a2.5,2.5,0,1,0-3.49-3.57Z" transform="translate(-0.36 -98.1)"/><path class="cls-5" d="M1523.22,737.64c-7.88,5.75-16.2,11.33-24.75,16.6a2.5,2.5,0,0,0,2.63,4.26c8.65-5.34,17.09-11,25.07-16.82a2.5,2.5,0,1,0-3-4Z" transform="translate(-0.36 -98.1)"/><path class="cls-5" d="M1481.3,764.26c-8.53,4.71-17.48,9.26-26.6,13.52a2.5,2.5,0,1,0,2.12,4.53c9.22-4.31,18.27-8.91,26.9-13.67a2.5,2.5,0,1,0-2.42-4.38Z" transform="translate(-0.36 -98.1)"/><path class="cls-5" d="M1654.73,530.83a2.5,2.5,0,0,0-2.9,2c-1.76,9.84-3.94,19.62-6.49,29.07a2.5,2.5,0,0,0,4.83,1.3c2.58-9.59,4.8-19.51,6.58-29.49A2.49,2.49,0,0,0,1654.73,530.83Z" transform="translate(-0.36 -98.1)"/><path class="cls-5" d="M1637.81,318.25a2.35,2.35,0,0,0,.69-.1,2.49,2.49,0,0,0,1.71-3.1c-2.76-9.55-5.8-19.22-9-28.74a2.5,2.5,0,1,0-4.73,1.6c3.2,9.45,6.22,19,9,28.53A2.5,2.5,0,0,0,1637.81,318.25Z" transform="translate(-0.36 -98.1)"/><path class="cls-5" d="M1659.91,481.12a2.52,2.52,0,0,0-2.62,2.38c-.46,10-1.31,20-2.5,29.7A2.49,2.49,0,0,0,1657,516l.3,0a2.5,2.5,0,0,0,2.48-2.19c1.21-9.81,2.06-19.93,2.54-30.09A2.5,2.5,0,0,0,1659.91,481.12Z" transform="translate(-0.36 -98.1)"/><path class="cls-5" d="M1642.76,579.35a2.49,2.49,0,0,0-3.16,1.57c-3.17,9.43-6.79,18.76-10.78,27.75a2.5,2.5,0,0,0,1.27,3.3,2.58,2.58,0,0,0,1,.21,2.49,2.49,0,0,0,2.29-1.49c4-9.12,7.73-18.6,10.95-28.18A2.5,2.5,0,0,0,1642.76,579.35Z" transform="translate(-0.36 -98.1)"/><path class="cls-5" d="M1193.56,835.31c-9.84.24-19.93.25-29.88.05h0a2.5,2.5,0,0,0-.05,5c4.65.09,9.37.14,14,.14,5.37,0,10.78-.06,16.09-.19a2.5,2.5,0,1,0-.12-5Z" transform="translate(-0.36 -98.1)"/><path class="cls-5" d="M1094.16,830.46c-9.77-1.16-19.73-2.55-29.6-4.13a2.5,2.5,0,0,0-.79,4.94c9.94,1.58,20,3,29.8,4.16h.29a2.5,2.5,0,0,0,.3-5Z" transform="translate(-0.36 -98.1)"/><path class="cls-5" d="M1143.77,834.66c-9.85-.49-19.87-1.19-29.8-2.11a2.5,2.5,0,0,0-.46,5c10,.92,20.1,1.64,30,2.13h.13a2.5,2.5,0,0,0,.12-5Z" transform="translate(-0.36 -98.1)"/><path class="cls-5" d="M996.22,812.4c-9.52-2.35-19.25-4.93-28.92-7.65a2.5,2.5,0,1,0-1.36,4.81c9.73,2.74,19.51,5.33,29.08,7.69a2.46,2.46,0,0,0,.6.07,2.5,2.5,0,0,0,.6-4.92Z" transform="translate(-0.36 -98.1)"/><path class="cls-5" d="M948.21,799.17c-9.34-2.84-18.91-5.89-28.44-9.08a2.5,2.5,0,0,0-1.58,4.74c9.57,3.2,19.19,6.27,28.57,9.12a2.64,2.64,0,0,0,.73.11,2.5,2.5,0,0,0,.72-4.89Z" transform="translate(-0.36 -98.1)"/><path class="cls-5" d="M901,783.61c-9.17-3.25-18.6-6.72-28-10.32a2.5,2.5,0,0,0-1.79,4.67c9.46,3.62,18.93,7.1,28.14,10.36a2.48,2.48,0,0,0,.84.15,2.5,2.5,0,0,0,.83-4.86Z" transform="translate(-0.36 -98.1)"/><path class="cls-5" d="M1292.6,825.47l-1.94.34c-9.12,1.58-18.41,3-27.6,4.18a2.5,2.5,0,0,0,.32,5,1.77,1.77,0,0,0,.32,0c9.26-1.2,18.62-2.62,27.81-4.22l2-.34a2.5,2.5,0,1,0-.87-4.92Z" transform="translate(-0.36 -98.1)"/><path class="cls-5" d="M1341.59,815.82c-9.4,2.15-19,4.15-29.31,6.11a2.5,2.5,0,0,0,.47,5,2.38,2.38,0,0,0,.46,0c10.38-2,20-4,29.5-6.15a2.5,2.5,0,1,0-1.12-4.87Z" transform="translate(-0.36 -98.1)"/><path class="cls-5" d="M1243.27,832.26c-9.86,1-19.89,1.75-29.8,2.28a2.5,2.5,0,0,0,.13,5h.14c10-.53,20.08-1.31,30-2.29a2.5,2.5,0,0,0-.49-5Z" transform="translate(-0.36 -98.1)"/><path class="cls-5" d="M1389.71,802.84c-9.3,2.92-19,5.69-28.74,8.24a2.5,2.5,0,0,0,.63,4.92,2.34,2.34,0,0,0,.63-.09c9.84-2.56,19.59-5.35,29-8.29a2.5,2.5,0,0,0-1.5-4.78Z" transform="translate(-0.36 -98.1)"/><path class="cls-5" d="M1436.5,785.84c-9,3.76-18.38,7.37-27.88,10.72a2.5,2.5,0,0,0,.83,4.85,2.37,2.37,0,0,0,.83-.14c9.59-3.38,19.06-7,28.15-10.82a2.5,2.5,0,0,0-1.93-4.61Z" transform="translate(-0.36 -98.1)"/></g></g><g class="cls-6"><path class="cls-7" d="M1047.85,139.59a20.75,20.75,0,1,1,20.74-20.75A20.77,20.77,0,0,1,1047.85,139.59Zm0-36.49a15.75,15.75,0,1,0,15.74,15.74A15.76,15.76,0,0,0,1047.85,103.1Z" transform="translate(-0.36 -98.1)"/></g><g class="cls-8"><path class="cls-9" d="M1778.56,334.17a17.7,17.7,0,1,1,17.7-17.7A17.72,17.72,0,0,1,1778.56,334.17Zm0-30.4a12.7,12.7,0,1,0,12.7,12.7A12.72,12.72,0,0,0,1778.56,303.77Z" transform="translate(-0.36 -98.1)"/></g><circle class="cls-10" cx="1904.2" cy="402.37" r="15.2"/><circle class="cls-10" cx="15.2" cy="311.37" r="15.2"/><g class="cls-8"><path class="cls-9" d="M1725.86,778.07a8.58,8.58,0,1,1,8.58-8.58A8.59,8.59,0,0,1,1725.86,778.07Zm0-12.16a3.58,3.58,0,1,0,3.58,3.58A3.58,3.58,0,0,0,1725.86,765.91Z" transform="translate(-0.36 -98.1)"/></g><g class="cls-6"><path class="cls-7" d="M1017.45,156.81a9.59,9.59,0,1,1,9.59-9.59A9.61,9.61,0,0,1,1017.45,156.81Zm0-14.18a4.59,4.59,0,1,0,4.59,4.59A4.6,4.6,0,0,0,1017.45,142.63Z" transform="translate(-0.36 -98.1)"/></g><g class="cls-6"><g class="cls-6"><path class="cls-7" d="M420.52,164.94,388.6,133l31.92-31.91L452.43,133ZM395.68,133l24.84,24.84L445.36,133l-24.84-24.84Z" transform="translate(-0.36 -98.1)"/></g><g class="cls-6"><path class="cls-7" d="M420.52,178.12,402.79,160.4l17.73-17.73,17.72,17.73ZM409.86,160.4l10.66,10.65,10.65-10.65-10.65-10.66Z" transform="translate(-0.36 -98.1)"/></g></g><g class="cls-11"><path class="cls-7" d="M1115.51,677.91A97.45,97.45,0,1,1,1213,580.46,97.57,97.57,0,0,1,1115.51,677.91Zm0-117.9A20.45,20.45,0,1,0,1136,580.46,20.47,20.47,0,0,0,1115.51,560Z" transform="translate(-0.36 -98.1)"/></g><g class="cls-6"><path class="cls-5" d="M1066.76,478a3.42,3.42,0,1,1,3.41-3.41A3.42,3.42,0,0,1,1066.76,478Zm0-3.41Z" transform="translate(-0.36 -98.1)"/><path class="cls-5" d="M1118,478a3.42,3.42,0,1,1,3.42-3.41A3.41,3.41,0,0,1,1118,478Zm0-3.41Z" transform="translate(-0.36 -98.1)"/><path class="cls-5" d="M1169.15,478a3.42,3.42,0,1,1,3.41-3.41A3.41,3.41,0,0,1,1169.15,478Zm0-3.41Z" transform="translate(-0.36 -98.1)"/><path class="cls-5" d="M1220.34,478a3.42,3.42,0,1,1,3.42-3.41A3.41,3.41,0,0,1,1220.34,478Zm0-3.41Z" transform="translate(-0.36 -98.1)"/><path class="cls-5" d="M1271.54,478a3.42,3.42,0,1,1,3.41-3.41A3.41,3.41,0,0,1,1271.54,478Zm0-3.41Z" transform="translate(-0.36 -98.1)"/><path class="cls-5" d="M1322.73,478a3.42,3.42,0,1,1,3.42-3.41A3.41,3.41,0,0,1,1322.73,478Zm0-3.41Z" transform="translate(-0.36 -98.1)"/><path class="cls-5" d="M1066.76,529.19a3.42,3.42,0,1,1,3.41-3.42A3.42,3.42,0,0,1,1066.76,529.19Zm0-3.42Z" transform="translate(-0.36 -98.1)"/><path class="cls-5" d="M1118,529.19a3.42,3.42,0,1,1,3.42-3.42A3.42,3.42,0,0,1,1118,529.19Zm0-3.42Z" transform="translate(-0.36 -98.1)"/><path class="cls-5" d="M1169.15,529.19a3.42,3.42,0,1,1,3.41-3.42A3.42,3.42,0,0,1,1169.15,529.19Zm0-3.42Z" transform="translate(-0.36 -98.1)"/><path class="cls-5" d="M1220.34,529.19a3.42,3.42,0,1,1,3.42-3.42A3.42,3.42,0,0,1,1220.34,529.19Zm0-3.42Z" transform="translate(-0.36 -98.1)"/><path class="cls-5" d="M1271.54,529.19a3.42,3.42,0,1,1,3.41-3.42A3.42,3.42,0,0,1,1271.54,529.19Zm0-3.42Z" transform="translate(-0.36 -98.1)"/><path class="cls-5" d="M1322.73,529.19a3.42,3.42,0,1,1,3.42-3.42A3.42,3.42,0,0,1,1322.73,529.19Zm0-3.42Z" transform="translate(-0.36 -98.1)"/><path class="cls-5" d="M1066.76,580.38a3.41,3.41,0,1,1,3.41-3.41A3.42,3.42,0,0,1,1066.76,580.38Zm0-3.41Z" transform="translate(-0.36 -98.1)"/><path class="cls-5" d="M1118,580.38a3.41,3.41,0,1,1,3.42-3.41A3.41,3.41,0,0,1,1118,580.38Zm0-3.41Z" transform="translate(-0.36 -98.1)"/><path class="cls-5" d="M1169.15,580.38a3.41,3.41,0,1,1,3.41-3.41A3.41,3.41,0,0,1,1169.15,580.38Zm0-3.41Z" transform="translate(-0.36 -98.1)"/><path class="cls-5" d="M1220.34,580.38a3.41,3.41,0,1,1,3.42-3.41A3.41,3.41,0,0,1,1220.34,580.38Zm0-3.41Z" transform="translate(-0.36 -98.1)"/><path class="cls-5" d="M1271.54,580.38A3.41,3.41,0,1,1,1275,577,3.41,3.41,0,0,1,1271.54,580.38Zm0-3.41Z" transform="translate(-0.36 -98.1)"/><path class="cls-5" d="M1322.73,580.38a3.41,3.41,0,1,1,3.42-3.41A3.41,3.41,0,0,1,1322.73,580.38Zm0-3.41Z" transform="translate(-0.36 -98.1)"/><path class="cls-5" d="M1066.76,631.58a3.42,3.42,0,1,1,3.41-3.42A3.42,3.42,0,0,1,1066.76,631.58Zm0-3.42Z" transform="translate(-0.36 -98.1)"/><path class="cls-5" d="M1118,631.58a3.42,3.42,0,1,1,3.42-3.42A3.42,3.42,0,0,1,1118,631.58Zm0-3.42Z" transform="translate(-0.36 -98.1)"/><path class="cls-5" d="M1169.15,631.58a3.42,3.42,0,1,1,3.41-3.42A3.42,3.42,0,0,1,1169.15,631.58Zm0-3.42Z" transform="translate(-0.36 -98.1)"/><path class="cls-5" d="M1220.34,631.58a3.42,3.42,0,1,1,3.42-3.42A3.42,3.42,0,0,1,1220.34,631.58Zm0-3.42Z" transform="translate(-0.36 -98.1)"/><path class="cls-5" d="M1271.54,631.58a3.42,3.42,0,1,1,3.41-3.42A3.42,3.42,0,0,1,1271.54,631.58Zm0-3.42Z" transform="translate(-0.36 -98.1)"/><path class="cls-5" d="M1322.73,631.58a3.42,3.42,0,1,1,3.42-3.42A3.42,3.42,0,0,1,1322.73,631.58Zm0-3.42Z" transform="translate(-0.36 -98.1)"/><path class="cls-5" d="M1066.76,682.77a3.41,3.41,0,1,1,3.41-3.41A3.42,3.42,0,0,1,1066.76,682.77Zm0-3.41Z" transform="translate(-0.36 -98.1)"/><path class="cls-5" d="M1118,682.77a3.41,3.41,0,1,1,3.42-3.41A3.41,3.41,0,0,1,1118,682.77Zm0-3.41Z" transform="translate(-0.36 -98.1)"/><path class="cls-5" d="M1169.15,682.77a3.41,3.41,0,1,1,3.41-3.41A3.41,3.41,0,0,1,1169.15,682.77Zm0-3.41Z" transform="translate(-0.36 -98.1)"/><path class="cls-5" d="M1220.34,682.77a3.41,3.41,0,1,1,3.42-3.41A3.41,3.41,0,0,1,1220.34,682.77Zm0-3.41Z" transform="translate(-0.36 -98.1)"/><path class="cls-5" d="M1271.54,682.77a3.41,3.41,0,1,1,3.41-3.41A3.41,3.41,0,0,1,1271.54,682.77Zm0-3.41Z" transform="translate(-0.36 -98.1)"/><path class="cls-5" d="M1322.73,682.77a3.41,3.41,0,1,1,3.42-3.41A3.41,3.41,0,0,1,1322.73,682.77Zm0-3.41Z" transform="translate(-0.36 -98.1)"/><path class="cls-5" d="M1066.76,734a3.42,3.42,0,1,1,3.41-3.42A3.42,3.42,0,0,1,1066.76,734Zm0-3.42Z" transform="translate(-0.36 -98.1)"/><path class="cls-5" d="M1118,734a3.42,3.42,0,1,1,3.42-3.42A3.42,3.42,0,0,1,1118,734Zm0-3.42Z" transform="translate(-0.36 -98.1)"/><path class="cls-5" d="M1169.15,734a3.42,3.42,0,1,1,3.41-3.42A3.42,3.42,0,0,1,1169.15,734Zm0-3.42Z" transform="translate(-0.36 -98.1)"/><path class="cls-5" d="M1220.34,734a3.42,3.42,0,1,1,3.42-3.42A3.42,3.42,0,0,1,1220.34,734Zm0-3.42Z" transform="translate(-0.36 -98.1)"/><path class="cls-5" d="M1271.54,734a3.42,3.42,0,1,1,3.41-3.42A3.42,3.42,0,0,1,1271.54,734Zm0-3.42Z" transform="translate(-0.36 -98.1)"/><path class="cls-5" d="M1322.73,734a3.42,3.42,0,1,1,3.42-3.42A3.42,3.42,0,0,1,1322.73,734Zm0-3.42Z" transform="translate(-0.36 -98.1)"/></g><path class="cls-12" d="M1366,286.28,1253.61,354c-102.56,61.81-101.16,211,2.54,270.88l109.94,63.47c103.71,59.88,233.62-13.51,235.86-133.24l2.46-131.21C1606.73,300.25,1472,222.44,1366,286.28Z" transform="translate(-0.36 -98.1)"/><path class="cls-13" d="M1502.64,345.93l-198.27-35.62c-122.86-22.07-227,87.07-192.59,201.76l49.91,166.09c34.45,114.69,183.41,154.57,275.35,73.72L1585.4,621.41C1687,532,1638.44,370.33,1502.64,345.93Z" transform="translate(-0.36 -98.1)"/><path class="cls-14" d="M1320.51,417.35,1152.8,506.94c-3.58,2-4.3,7.53-1.61,12.37s7.7,7.34,11.28,5.55l167.72-89.59c3.58-2,4.3-7.52,1.61-12.36S1324.1,415.56,1320.51,417.35Z" transform="translate(-0.36 -98.1)"/><path class="cls-14" d="M1341.3,456.06l-167.72,89.59c-3.58,2-4.3,7.52-1.61,12.36s7.71,7.35,11.29,5.56L1351,474c3.59-2,4.3-7.52,1.62-12.36S1344.88,454.26,1341.3,456.06Z" transform="translate(-0.36 -98.1)"/><path class="cls-14" d="M1361.9,494.76l-167.71,89.59c-3.58,2-4.3,7.53-1.61,12.36s7.7,7.35,11.29,5.56l167.71-89.59c3.58-2,4.3-7.53,1.61-12.37S1365.49,493,1361.9,494.76Z" transform="translate(-0.36 -98.1)"/><path class="cls-14" d="M1382.51,533.46,1214.8,623.05c-3.59,2-4.3,7.53-1.62,12.37s7.71,7.34,11.29,5.55l167.72-89.59c3.58-2,4.3-7.52,1.61-12.36S1386.09,531.67,1382.51,533.46Z" transform="translate(-0.36 -98.1)"/><path class="cls-14" d="M1403.3,572.17l-167.72,89.59c-3.58,2-4.3,7.52-1.61,12.36s7.7,7.35,11.29,5.56L1413,590.08c3.59-2,4.3-7.52,1.61-12.36S1406.88,570.37,1403.3,572.17Z" transform="translate(-0.36 -98.1)"/><path class="cls-15" d="M1516.72,668l-182.59-341.7a3.59,3.59,0,0,0-5-1.44l-258,137.62a3.57,3.57,0,0,0-1.43,5L1229.8,767.38a175.3,175.3,0,0,0,63.26,24.34l222.22-118.67A3.59,3.59,0,0,0,1516.72,668Z" transform="translate(-0.36 -98.1)"/><path class="cls-14" d="M1320.51,417.35,1152.8,506.94c-3.58,2-4.3,7.53-1.61,12.37s7.7,7.34,11.28,5.55l167.72-89.59c3.58-2,4.3-7.52,1.61-12.36S1324.1,415.56,1320.51,417.35Z" transform="translate(-0.36 -98.1)"/><path class="cls-14" d="M1341.3,456.06l-167.72,89.59c-3.58,2-4.3,7.52-1.61,12.36s7.71,7.35,11.29,5.56L1351,474c3.59-2,4.3-7.52,1.62-12.36S1344.88,454.26,1341.3,456.06Z" transform="translate(-0.36 -98.1)"/><path class="cls-14" d="M1361.9,494.76l-167.71,89.59c-3.58,2-4.3,7.53-1.61,12.36s7.7,7.35,11.29,5.56l167.71-89.59c3.58-2,4.3-7.53,1.61-12.37S1365.49,493,1361.9,494.76Z" transform="translate(-0.36 -98.1)"/><path class="cls-14" d="M1382.51,533.46,1214.8,623.05c-3.59,2-4.3,7.53-1.62,12.37s7.71,7.34,11.29,5.55l167.72-89.59c3.58-2,4.3-7.52,1.61-12.36S1386.09,531.67,1382.51,533.46Z" transform="translate(-0.36 -98.1)"/><path class="cls-14" d="M1403.3,572.17l-167.72,89.59c-3.58,2-4.3,7.52-1.61,12.36s7.7,7.35,11.29,5.56L1413,590.08c3.59-2,4.3-7.52,1.61-12.36S1406.88,570.37,1403.3,572.17Z" transform="translate(-0.36 -98.1)"/><polygon class="cls-16" points="1267.83 216.76 1419.78 226.08 1462.25 99.04 1328.93 70.91 1267.83 216.76"/><circle class="cls-17" cx="1377.31" cy="123.76" r="60.74"/><path class="cls-18" d="M1324.1,350.34l-229,122.2,165.62,310.27c1.22.46,2.45.92,3.68,1.36l226.69-121Z" transform="translate(-0.36 -98.1)"/><path class="cls-16" d="M1414.33,333.25l-.1.07Z" transform="translate(-0.36 -98.1)"/><path class="cls-16" d="M1481.6,246.77a64.16,64.16,0,0,0,1.61-29.74c-8.42-41-39.78-122.38-151.41-66.84,0,0-31.35,11.47-32.25,53.22a74.55,74.55,0,0,0,2.87,20.78c2,7.71,3.76,24.37-10,46.41a412.52,412.52,0,0,0-24.19,44.62l35.48,3.4,5.91-58.59a294.22,294.22,0,0,1,20.79-82.78l.18-.54s16.3,28.31,47.12,27.42l-11.29-10.75s38.71,14.51,59.67,17.56A13.2,13.2,0,0,1,1437.34,226a13.42,13.42,0,0,1-3.4,7.16c-.18.18-.18.36-.36.36-12.9,13.62-38.53,45.16-22.4,69,15.28,22.58,4.34,30,3.15,30.75l23.73-13.91,10.75-7,.18,8.78,57.16-8.24s15.41-2.69-18.82-39.24C1487.33,273.65,1478.19,259.31,1481.6,246.77Z" transform="translate(-0.36 -98.1)"/><g class="cls-19"><path class="cls-14" d="M1320.51,417.35,1152.8,506.94c-3.58,2-4.3,7.53-1.61,12.37s7.7,7.34,11.28,5.55l167.72-89.59c3.58-2,4.3-7.52,1.61-12.36S1324.1,415.56,1320.51,417.35Z" transform="translate(-0.36 -98.1)"/><path class="cls-14" d="M1341.3,456.06l-167.72,89.59c-3.58,2-4.3,7.52-1.61,12.36s7.71,7.35,11.29,5.56L1351,474c3.59-2,4.3-7.52,1.62-12.36S1344.88,454.26,1341.3,456.06Z" transform="translate(-0.36 -98.1)"/><path class="cls-14" d="M1361.9,494.76l-167.71,89.59c-3.58,2-4.3,7.53-1.61,12.36s7.7,7.35,11.29,5.56l167.71-89.59c3.58-2,4.3-7.53,1.61-12.37S1365.49,493,1361.9,494.76Z" transform="translate(-0.36 -98.1)"/><path class="cls-14" d="M1382.51,533.46,1214.8,623.05c-3.59,2-4.3,7.53-1.62,12.37s7.71,7.34,11.29,5.55l167.72-89.59c3.58-2,4.3-7.52,1.61-12.36S1386.09,531.67,1382.51,533.46Z" transform="translate(-0.36 -98.1)"/><path class="cls-14" d="M1403.3,572.17l-167.72,89.59c-3.58,2-4.3,7.52-1.61,12.36s7.7,7.35,11.29,5.56L1413,590.08c3.59-2,4.3-7.52,1.61-12.36S1406.88,570.37,1403.3,572.17Z" transform="translate(-0.36 -98.1)"/></g><path class="cls-14" d="M1446.12,293.9c-30.1-.9-57,5.55-80.81,19.17a41.75,41.75,0,0,0-31.18,30.64L1327,372.2c-35.29,34.76-46.58,73.64-29.56,117l5.37,100.35,145.14-16.13c18.82-65.94,30.1-139.76,36.38-218.6A60.25,60.25,0,0,0,1446.12,293.9Z" transform="translate(-0.36 -98.1)"/><path class="cls-16" d="M1439.31,574.5l-62.17.35-65.23.36h-9.14l.72,14.34.54,11.11,5,108-14.16,31.18-21.32,47.27q2.42.71,4.86,1.35l17.54,3.34c4.27.7,8.55,1.33,12.83,1.92,44.51,3.77,91-9.17,128.24-41.88l85.79-75.45c-16.73-31.75-44.07-65.11-74-101.93Z" transform="translate(-0.36 -98.1)"/><path class="cls-14" d="M1413.87,342.45a34.44,34.44,0,0,0-68.81,3.05l-8.24,72c25.44-11.11,52.5-10,80.63,0l-3.58-74.9Z" transform="translate(-0.36 -98.1)"/><path class="cls-17" d="M1287.36,782.88l86.55-201.22,3.23-6.81,9.85-21.14,18.64-139.94,1.07-8.78-60.92-1.79L1344,414.67l-19.71,121.12-12.37,39.42-4.3,13.8L1304,600.66l-44.26,141.19-12.18,28.49a34.44,34.44,0,0,0-6.81,3.42,176,176,0,0,0,50.89,17.7c-.12-.35-.23-.7-.36-1.05A37.46,37.46,0,0,0,1287.36,782.88Z" transform="translate(-0.36 -98.1)"/></svg>